<svg width="72" height="72" viewBox="0 0 72 72" fill="none" xmlns="http://www.w3.org/2000/svg">
<path d="M34.1922 0.0507613L34.6744 0.0218968C44.2738 -0.30974 53.6407 3.13513 60.6571 9.71536C65.8678 14.6025 69.5425 21.0225 71.1121 28.001C71.6596 30.4363 71.9018 32.9574 71.9834 35.4492C72.2792 44.4585 68.6085 53.8909 62.4631 60.4458C56.0634 67.2716 47.1889 71.6044 37.7878 71.9035L37.3521 71.952C35.8131 72.0675 34.2056 71.9553 32.6703 71.8183C25.1908 71.1499 18.1113 68.1669 12.4231 63.2536C6.34205 58.001 2.19888 50.7037 0.655803 42.8307C0.339954 41.2193 0.202118 39.5725 0.0827863 37.9367C-0.578928 28.8652 2.76622 19.3139 8.68227 12.4593C13.8462 6.47617 20.9907 2.26233 28.746 0.694867C30.5248 0.335379 32.3847 0.183799 34.1922 0.0507613Z" fill="#C83B39"/>
<path d="M64.6525 24.8946L64.8375 24.875C65.3418 24.8705 65.8271 25.2931 66.1616 25.6331C66.4767 25.9536 66.6349 26.2304 66.7037 26.6827C66.8422 27.5912 66.8072 28.5541 66.8079 29.4724C66.8094 30.8026 66.8098 32.1329 66.8101 33.4633C66.8112 38.0917 66.8097 42.7201 66.8083 47.3486L62.6063 47.3508L62.6034 42.504L62.6132 30.3841C61.3114 30.8634 60.1681 31.6358 58.9479 32.2836L57.2559 28.768C58.5697 28.0995 59.8631 27.3294 61.1361 26.5829C62.2459 25.9318 63.3641 25.0991 64.6525 24.8946Z" fill="#FEFEFE"/>
<path d="M32.0079 24.8768C32.3521 24.8586 32.6276 24.9823 32.9584 25.0561C33.0979 25.0873 33.1803 25.1161 33.2823 25.2188C33.7345 25.6727 34.1116 26.354 34.2183 26.9917C34.3404 27.7235 34.2835 28.5216 34.2839 29.2636C34.2846 30.5139 34.285 31.7642 34.2854 33.0146C34.2864 37.7918 34.285 42.5689 34.2835 47.3461L30.0897 47.3465L30.0863 42.5965L30.0917 30.373L26.3771 32.2807L24.6602 28.8465C26.0048 28.1137 27.3412 27.2953 28.6647 26.5158C29.7406 25.8822 30.8084 25.2402 32.0079 24.8768Z" fill="#FEFEFE"/>
<path d="M15.748 24.8823C16.3936 24.8283 16.8302 25.0815 17.382 25.3711C18.3345 26.9251 18.9678 28.8696 19.6779 30.5512C21.1548 34.0491 22.6655 37.5324 24.1427 41.0304C25.0208 43.1093 25.8011 45.3849 26.9213 47.3375L22.3004 47.3452L20.4114 42.5916L16.473 42.5596L11.7011 42.5644C10.8655 44.0564 10.3777 45.7623 9.72575 47.3408L5.18945 47.3287C7.41656 42.2717 9.57433 37.1734 11.7243 32.0823C12.3616 30.5732 12.9713 29.0494 13.6406 27.5541C13.8485 27.0897 14.0338 26.5078 14.2987 26.0822C14.6736 25.4801 15.1235 25.1768 15.748 24.8823Z" fill="#FEFEFE"/>
<path d="M15.9855 32.0273C16.3449 32.3344 16.6234 33.4392 16.8114 33.8954C17.4876 35.5365 18.1116 37.2439 18.8667 38.8446L16.1093 38.8538L13.1758 38.8681L15.9855 32.0273Z" fill="#C83B39"/>
<path d="M46.5424 24.6484C48.4501 24.6887 50.1377 25.1082 51.6534 26.3354C53.9717 28.2128 55.1322 31.3114 55.4484 34.2112C55.8328 37.7346 55.1227 41.4944 52.8747 44.2995C51.414 46.1225 49.647 46.9086 47.3804 47.152C45.0988 47.1885 43.5296 46.8272 41.7767 45.3006C39.4157 43.2442 38.2899 40.3445 38.0687 37.2482C37.833 33.9513 38.4892 30.1332 40.695 27.5709C42.2442 25.7716 44.2018 24.8096 46.5424 24.6484Z" fill="#FEFEFE"/>
<path d="M46.392 28.5807C47.3425 28.4809 48.0705 28.6655 48.8743 29.176C50.1309 29.974 50.9029 31.6868 51.2188 33.1101C51.7497 35.4995 51.546 38.7062 50.2238 40.8124C49.5658 41.8607 48.6906 42.5397 47.4956 42.8125C46.7979 42.9244 46.2211 42.8854 45.5573 42.6295C44.2285 42.1177 43.5402 41.1103 42.9737 39.8414C42.0063 37.6756 41.8828 34.4048 42.7277 32.1785C43.1992 30.9363 43.9603 29.4802 45.2297 28.9218C45.6145 28.7526 45.9828 28.6624 46.392 28.5807Z" fill="#C83B39"/>
</svg>
