<svg width="36" height="33" viewBox="0 0 36 33" fill="none" xmlns="http://www.w3.org/2000/svg">
<path d="M3.4535 0.0172387C3.65941 -0.010314 3.88428 0.00341362 4.09258 0.00346247L5.17876 0.00502563L8.74161 0.00678409L20.8385 0.00297421C21.8414 0.00610076 22.7931 0.262477 23.5166 0.999413C23.993 1.48471 24.3337 2.11916 24.4479 2.79224C24.506 3.13455 24.5046 3.48023 24.5014 3.8261L25.2722 4.10324C27.3081 4.98981 28.8434 6.6312 29.6516 8.69276C30.5524 10.9908 30.3109 13.6805 29.0617 15.7995C28.8778 16.1116 28.6747 16.4121 28.4537 16.6991L28.0603 17.1812C28.0049 17.2492 27.9317 17.3222 27.8964 17.4029L28.6995 18.5457C29.2038 18.4898 29.7403 18.562 30.1781 18.8314C30.3273 18.9233 30.4651 19.0391 30.5825 19.1692C30.7656 19.372 30.9302 19.6005 31.1027 19.8131L32.4541 21.4885L34.4207 23.9006C34.6744 24.217 34.9672 24.5226 35.1932 24.858C35.3403 25.0762 35.4298 25.3122 35.4901 25.5671C35.6376 26.1913 35.5287 26.8625 35.1871 27.4072C34.8233 27.9872 34.2513 28.4128 33.5784 28.5609C32.9954 28.6893 32.385 28.551 31.885 28.2339C31.7174 28.1276 31.5748 27.999 31.4415 27.8523L30.4744 26.6822L28.5484 24.3367L27.6744 23.2863C27.4966 23.0755 27.3035 22.865 27.1481 22.6369C26.976 22.3844 26.8665 22.1112 26.799 21.8148C26.7067 21.372 26.7826 20.9222 26.9295 20.5021L25.7408 18.9119L25.2889 19.1168C25.1696 19.8584 25.1814 20.6409 25.1245 21.3915L24.7704 26.2834L24.6668 27.9032C24.6351 28.359 24.6055 28.8363 24.5072 29.2825C24.2415 30.4879 23.445 31.5903 22.4015 32.2496C21.7741 32.6459 21.0439 32.8943 20.3054 32.9715C19.9389 33.0098 19.5592 32.9928 19.191 32.9927L17.4201 32.9912L11.7317 32.9883L4.91364 32.9889L3.12834 32.99C2.78031 32.99 2.35965 33.0302 2.02096 32.9494C1.66316 32.8639 1.32657 32.7271 1.02862 32.507C0.472681 32.0964 0.124755 31.4944 0.0270508 30.812C-0.0454948 30.3054 0.0477156 29.7503 0.0760499 29.2399L0.23736 26.2664L0.404581 19.2561L0.320702 8.60126L0.224853 5.29006C0.203261 4.68756 0.138434 4.06255 0.167501 3.46152C0.202284 2.74202 0.460761 2.01813 0.897207 1.44509C1.53317 0.609963 2.42589 0.157396 3.4535 0.0172387Z" fill="#192D6C"/>
<path d="M27.1061 18.1016C27.2425 18.1416 27.7592 18.9207 27.8546 19.0879C27.7115 19.2373 27.6126 19.3953 27.5104 19.5739L27.4666 19.5782L26.6211 18.449L27.1061 18.1016Z" fill="white"/>
<path d="M28.9853 19.5285C29.1954 19.521 29.3917 19.5485 29.5796 19.6515C29.7112 19.7236 29.8199 19.8212 29.9194 19.9326C30.5883 20.6812 31.1793 21.5105 31.8179 22.2857L33.6077 24.4604C33.8439 24.7525 34.0976 25.0378 34.3172 25.3423C34.4113 25.4729 34.4845 25.6107 34.5289 25.7659C34.6315 26.1242 34.5721 26.4818 34.3923 26.805C34.151 27.2387 33.8268 27.4641 33.3583 27.5976C33.0715 27.6387 32.7766 27.596 32.5197 27.4601C32.4028 27.3983 32.3061 27.3131 32.2165 27.2168C32.0288 27.015 31.8679 26.7846 31.6897 26.5738L29.857 24.3478L28.7486 23.0076C28.499 22.709 28.2353 22.4132 28.0091 22.0962C27.9095 21.9568 27.8376 21.8152 27.7925 21.6487C27.7087 21.3397 27.7563 21.0609 27.9209 20.7877L28.3761 20.0728C28.4719 19.9246 28.5696 19.7444 28.7108 19.6354C28.7902 19.5742 28.89 19.5524 28.9853 19.5285Z" fill="#FFCC00"/>
<path d="M6.24352 29.3574L23.4179 29.4155L23.4209 29.4437C23.4104 29.5386 23.3216 29.6944 23.2813 29.7848C22.9486 30.5323 22.3692 31.0692 21.6835 31.4931C21.223 31.7584 20.7322 31.9175 20.2038 31.9721C19.6449 32.0298 19.0467 31.9879 18.4822 31.988L15.147 31.9879L4.91797 31.9667C5.44914 31.4281 5.52833 30.7675 5.66384 30.0568C5.69066 29.9161 5.70747 29.7401 5.78881 29.6192C5.89638 29.4592 6.06077 29.3877 6.24352 29.3574Z" fill="#FFCC00"/>
<path d="M21.9277 4.44005C23.6866 4.35554 25.4912 5.10806 26.7966 6.25784C28.2353 7.52512 29.0755 9.35004 29.1959 11.2508C29.3145 13.1239 28.6252 15.0148 27.3855 16.4144C26.5927 17.3096 25.5623 18.0059 24.416 18.3565C23.7563 18.5583 23.0872 18.6475 22.4011 18.688C21.1043 18.7171 19.8185 18.4431 18.6889 17.7866C18.249 17.5309 17.8398 17.2115 17.4599 16.8733C16.0867 15.6507 15.2195 13.8528 15.1209 12.0178C15.013 10.0091 15.6619 8.12488 17.0168 6.63513C18.2896 5.23571 20.0661 4.53253 21.9277 4.44005Z" fill="#FFCC00"/>
<path d="M21.8691 5.46334C23.358 5.40399 24.8819 5.95397 26.0083 6.92393C27.3282 8.06047 28.0298 9.53576 28.1532 11.268C28.2701 12.9103 27.6864 14.4975 26.6034 15.7226C25.5245 16.9429 24.0563 17.5614 22.4481 17.6633C20.8719 17.685 19.4253 17.2449 18.2207 16.2013C16.9753 15.1223 16.2127 13.5416 16.1023 11.9027C15.9995 10.3758 16.5354 8.69223 17.5505 7.53942C18.6847 6.25118 20.1666 5.57013 21.8691 5.46334Z" fill="#192D6C"/>
<path d="M25.0742 7.4707C26.1325 8.24692 26.8491 9.37536 27.0749 10.6702C27.3234 12.0958 27.0054 13.4916 26.1809 14.6742C25.9385 15.011 25.6531 15.2918 25.3305 15.551C25.4479 14.0959 25.4329 12.6167 25.3734 11.1591C25.3231 9.9268 25.2447 8.69264 25.0742 7.4707Z" fill="white"/>
<path d="M21.9233 6.46638C22.6646 6.4292 23.327 6.58484 24.0082 6.86189C24.3294 9.41852 24.472 11.9773 24.3773 14.5536L24.3197 15.6116C24.3066 15.8128 24.3036 16.0403 24.2595 16.2366L23.8637 16.3998C22.6731 16.8594 21.3252 16.7808 20.1651 16.2673C19.6719 16.0461 19.2135 15.7478 18.8095 15.3893C17.791 14.4855 17.2021 13.2216 17.1213 11.8686C17.0407 10.5196 17.4483 9.1854 18.3553 8.17039C19.3036 7.10903 20.5038 6.54708 21.9233 6.46638Z" fill="white"/>
<path d="M3.52472 1.03944L3.68393 1.03031L7.83417 1.02938L15.9291 1.02894L19.6537 1.02664L20.7978 1.02454C21.025 1.02435 21.2664 1.01076 21.4916 1.04247C21.9526 1.10744 22.436 1.35102 22.7654 1.67745C23.3027 2.20984 23.5037 2.83242 23.5038 3.57492C22.4734 3.36715 21.4536 3.38425 20.4255 3.60223C18.3319 4.04605 16.5202 5.30888 15.3661 7.10923C14.1877 8.94745 13.8138 11.2274 14.2846 13.3536C14.7518 15.4636 16.0557 17.2859 17.875 18.4421C19.2393 19.3092 20.9121 19.7412 22.5259 19.6625C23.1158 19.6337 23.6802 19.535 24.2554 19.4069L23.889 24.5131L23.7499 26.6514C23.7212 27.102 23.7267 27.5828 23.6528 28.0273C23.6308 28.1597 23.5914 28.2709 23.5322 28.3908C23.3651 28.4108 23.1869 28.3978 23.0185 28.3967L22.1569 28.3915L19.0594 28.3686L9.18494 28.3516L7.53837 28.3534C6.99089 28.3498 6.36763 28.2721 5.83719 28.4086C4.8111 28.6726 4.7365 29.5681 4.57329 30.4483C4.53889 30.6336 4.51564 30.8446 4.41251 31.0057C4.16005 31.3998 3.02457 31.8776 2.56521 31.9527C2.25437 32.0036 1.91323 31.8951 1.6633 31.7107C1.30937 31.4495 1.07581 31.0681 1.02407 30.6294C0.985626 30.3032 1.04757 29.9503 1.06545 29.6226L1.19975 27.1925L1.40712 19.5121L1.31206 7.95819L1.24357 5.37444L1.20527 4.23194C1.1955 3.97448 1.17439 3.71288 1.18348 3.45528C1.2018 2.93799 1.42393 2.41996 1.74127 2.01653C2.19438 1.44066 2.80327 1.12571 3.52472 1.03944Z" fill="white"/>
<path d="M6.04955 12.7195L10.4926 12.7247L12.7934 12.7168C12.8733 12.7203 12.9617 12.7323 13.0346 12.7672C13.161 12.8276 13.2412 12.9273 13.2887 13.0576C13.337 13.1904 13.3468 13.3132 13.2809 13.4417C13.196 13.6071 13.0665 13.6877 12.8944 13.7424L11.5741 13.7448L8.92631 13.7496L7.03275 13.7543C6.71844 13.7549 6.38868 13.7759 6.07574 13.7525C5.95878 13.7438 5.86611 13.7201 5.77016 13.6506C5.66235 13.5724 5.58809 13.4579 5.56992 13.3255C5.54906 13.1736 5.58804 13.0188 5.68453 12.898C5.7816 12.7765 5.90172 12.7419 6.04955 12.7195Z" fill="#192D6C"/>
<path d="M5.90882 8.87927C6.18547 8.84859 6.48503 8.87135 6.76398 8.87218L8.34528 8.87262L11.2334 8.87463L12.8138 8.87585C12.8917 8.87814 12.9731 8.88103 13.0462 8.91073C13.1687 8.96046 13.283 9.07331 13.329 9.19725C13.378 9.3292 13.3706 9.50062 13.3094 9.62773C13.2411 9.76955 13.141 9.82319 12.9986 9.87541C12.4651 9.9164 11.9123 9.88919 11.3766 9.88963L8.37781 9.89173L6.72172 9.89618C6.4823 9.89671 6.18063 9.93169 5.9501 9.88215C5.80926 9.85187 5.68234 9.75851 5.61268 9.63189C5.54898 9.51615 5.51229 9.35914 5.55655 9.2311C5.62196 9.04209 5.73461 8.96129 5.90882 8.87927Z" fill="#192D6C"/>
<path d="M6.01148 16.5715L10.7844 16.5684L12.7971 16.5694L13.8443 16.5747C13.9366 16.5795 14.0332 16.5856 14.1163 16.6293C14.2297 16.6891 14.3325 16.8208 14.3621 16.9457C14.3937 17.0793 14.3798 17.2306 14.3063 17.3488C14.2162 17.4936 14.1055 17.5495 13.9446 17.5906L12.3006 17.5942L9.18243 17.5846L7.21871 17.5804C6.84343 17.5822 6.4532 17.6076 6.07923 17.5838C5.99809 17.5786 5.91714 17.5543 5.8465 17.514C5.7297 17.4473 5.62481 17.3233 5.59423 17.19C5.56926 17.0813 5.59076 16.9193 5.64963 16.8236C5.73439 16.6858 5.86184 16.6165 6.01148 16.5715Z" fill="#192D6C"/>
<path d="M5.95598 5.04306C6.36952 5.01874 6.79624 5.03945 7.21139 5.03989L9.60906 5.04223L12.3863 5.03921H13.7463C13.821 5.04238 13.8923 5.05552 13.9618 5.08386C14.0815 5.13261 14.1786 5.24385 14.2223 5.36412C14.2729 5.5035 14.2716 5.64766 14.208 5.78244C14.1339 5.93936 14.0211 6.00902 13.8629 6.06613L12.6336 6.0693L10.3953 6.06838L7.57588 6.07355L6.11637 6.08029C6.0298 6.07824 5.93771 6.07004 5.85662 6.03765C5.71524 5.98117 5.6167 5.8758 5.56277 5.73437C5.5169 5.61405 5.52545 5.46837 5.58114 5.35303C5.66429 5.18088 5.7809 5.10491 5.95598 5.04306Z" fill="#192D6C"/>
<path d="M5.95168 24.1439C6.49995 24.1001 7.08402 24.1389 7.63552 24.1393L11.052 24.1399L16.8492 24.1394L19.5984 24.1357C19.6751 24.1374 19.7358 24.1472 19.7984 24.1966L19.8255 24.2201L19.9142 24.296C20.0068 24.3901 20.05 24.504 20.0456 24.6356C20.0401 24.7972 19.9754 24.9336 19.8519 25.039C19.7973 25.0856 19.7304 25.1127 19.6646 25.1397C19.3637 25.1857 19.0279 25.1538 18.7226 25.1535L16.9788 25.1572L10.5959 25.1631L7.45007 25.1624L6.57117 25.1614C6.38519 25.1611 6.19169 25.1726 6.00776 25.141C5.88705 25.1203 5.76829 25.0277 5.69921 24.9291C5.60913 24.8004 5.58529 24.6485 5.62202 24.495C5.66277 24.3246 5.80883 24.2234 5.95168 24.1439Z" fill="#192D6C"/>
<path d="M5.95659 20.3574C6.16011 20.3336 6.37633 20.3481 6.58141 20.3486L7.72294 20.3508L11.391 20.3488L17.5446 20.349L18.9444 20.3528C19.1758 20.3531 19.4582 20.3251 19.6816 20.375C19.8062 20.4028 19.9203 20.5025 19.9845 20.6107C20.0639 20.7445 20.0804 20.8949 20.031 21.0432C19.9763 21.2073 19.8469 21.2893 19.7018 21.3655C19.5507 21.3928 19.3742 21.3771 19.2197 21.3769L18.4028 21.375L15.3861 21.373L8.56955 21.3773L6.87184 21.3778C6.58336 21.3776 6.24467 21.4111 5.96397 21.3543C5.84599 21.3304 5.73675 21.2291 5.67383 21.1306C5.60187 21.0178 5.58355 20.8342 5.61931 20.707C5.67036 20.5252 5.79982 20.4387 5.95659 20.3574Z" fill="#192D6C"/>
</svg>
