<svg width="27" height="34" viewBox="0 0 27 34" fill="none" xmlns="http://www.w3.org/2000/svg">
<path d="M2.32153 0.0202881C2.79891 -0.0200983 3.30076 0.0122854 3.78163 0.0122854L6.65739 0.0104246L15.8811 0.00726029L21.7436 0.00986585L23.4062 0.00860993C23.6918 0.00842381 24.0079 -0.0190283 24.2887 0.0276859L24.6138 0.0854279C25.2681 0.232038 25.894 0.689641 26.2453 1.26012C26.4748 1.63277 26.627 2.07906 26.6539 2.51741C26.6953 3.19216 26.6608 3.88938 26.6613 4.56664L26.6619 8.77427L26.6572 23.365L26.6684 29.3805L26.6659 30.7981C26.6649 31.1156 26.6931 31.4843 26.6161 31.7933C26.5401 32.0981 26.4481 32.3659 26.2853 32.6372C25.8937 33.2896 25.2377 33.7635 24.5034 33.9448C24.1293 34.0177 23.7434 33.9991 23.3646 33.9945L22.0312 33.9812L17.4585 33.9733L7.24783 33.9755L4.08946 33.9785C3.54857 33.9789 2.96292 34.0207 2.42766 33.9561C1.68009 33.8658 1.01888 33.4685 0.557788 32.877C0.247631 32.4791 0.064869 31.9631 0.0261111 31.4626C-0.0218128 30.8437 0.0108966 30.2023 0.0108966 29.5808L0.0113155 26.0868L0.0114546 15.2562L0.0132232 6.48262L0.0127113 3.78455C0.0124321 3.28275 -0.01944 2.75568 0.0340208 2.25796C0.0801767 1.82804 0.260892 1.4306 0.51112 1.08164C0.939551 0.484034 1.60649 0.136329 2.32153 0.0202881Z" fill="#192D6C"/>
<path d="M9.79476 1.00218L20.0383 1.00004L22.8431 0.9952L23.7019 0.991617C23.8499 0.991152 24.0131 0.976542 24.1586 0.997992C24.5397 1.0541 24.8878 1.22877 25.1625 1.49863C25.5793 1.90813 25.6845 2.39905 25.688 2.96241L25.6899 22.3945L25.6919 28.5581L25.6941 30.502C25.6942 30.821 25.7226 31.1703 25.6852 31.4862C25.6373 31.8899 25.455 32.2369 25.1692 32.5223C24.9133 32.7779 24.5873 32.9403 24.2328 33.0078C23.9538 33.0609 23.6458 33.0409 23.3621 33.0411L21.9486 33.0395L16.9058 33.0363L6.98632 33.03L4.02965 33.0296L3.14361 33.0283C2.9635 33.0276 2.7759 33.0371 2.59751 33.0113L2.55773 33.0052C2.19021 32.955 1.83413 32.8211 1.55752 32.5672C1.2213 32.2587 0.984849 31.787 0.971356 31.3269L0.967262 29.0713L0.966797 24.6859L0.975032 11.8704L0.979406 5.18385L0.979778 3.2835C0.979871 2.97637 0.954699 2.64081 0.991782 2.33693C1.02877 2.0338 1.22279 1.70969 1.43552 1.49333C1.66169 1.26334 1.97031 1.07779 2.2902 1.02144C2.51907 0.981102 2.78507 1.00497 3.01785 1.00525L4.39466 1.00651L9.79476 1.00218Z" fill="#FFCC00"/>
<path d="M2.55665 2.30299L19.21 2.29657L22.5045 2.2976L23.5496 2.29797C23.7242 2.2982 23.9587 2.27349 24.1241 2.33184C24.2147 2.36381 24.2866 2.45007 24.3279 2.53414C24.3519 2.58314 24.3647 2.63958 24.3688 2.69378C24.3895 2.96644 24.3761 3.24928 24.3774 3.52338L24.3812 5.1145L24.3723 10.3182L24.3747 26.8452L24.378 29.6362L24.384 30.8166C24.3849 31.0013 24.4168 31.2581 24.3551 31.4314C24.2998 31.5866 24.1726 31.6857 24.0288 31.7542C23.7209 31.785 23.4023 31.7693 23.0928 31.7687L21.577 31.7643L17.0347 31.7651L7.14069 31.7627L2.85326 31.774C2.73946 31.7724 2.63756 31.7503 2.53538 31.6987C2.38124 31.621 2.2825 31.4846 2.2376 31.3191C2.19303 31.1548 2.2223 30.9107 2.22262 30.7367L2.22704 29.4199L2.22611 24.8539L2.23663 9.04612L2.23974 4.92187L2.23104 2.75715C2.23504 2.65167 2.24202 2.56895 2.29939 2.47761C2.36337 2.37567 2.44293 2.33207 2.55665 2.30299Z" fill="white"/>
<path d="M3.77954 19.223C3.77014 19.1784 3.76251 19.1379 3.76382 19.092C3.76875 18.9202 3.82179 18.7725 3.94863 18.6537C4.0307 18.5768 4.13269 18.524 4.24399 18.5056C4.45583 18.4705 4.70801 18.4943 4.92395 18.4931L6.09539 18.4903C6.27508 18.4964 6.41908 18.5574 6.54192 18.6896C6.69378 18.853 6.69216 19.0126 6.68266 19.2221C6.56341 19.3493 6.45556 19.4513 6.26987 19.4578L5.13095 19.444L4.43508 19.4419C4.31983 19.4415 4.19276 19.4529 4.07951 19.4349C3.99525 19.4216 3.92587 19.3844 3.86497 19.3253C3.83282 19.294 3.80644 19.2588 3.77954 19.223Z" fill="#192D6C"/>
<path d="M9.15536 14.8257C9.15038 14.5328 9.10488 14.2814 9.33403 14.0552C9.40545 13.9847 9.48929 13.9329 9.58761 13.9098C9.82304 13.8546 10.1051 13.8817 10.3477 13.8812L11.4909 13.8835C11.6591 13.8887 11.8103 13.9461 11.9245 14.0721C12.1266 14.2949 12.1091 14.5015 12.089 14.78L12.0855 14.8251L9.15536 14.8257Z" fill="#192D6C"/>
<path d="M9.15624 19.4182C9.15108 19.1498 9.10544 18.8717 9.31235 18.6624C9.36962 18.6045 9.42992 18.567 9.50209 18.5308L9.52963 18.5167C9.69267 18.4398 11.4779 18.4375 11.6676 18.5082C11.8202 18.5651 11.9777 18.6794 12.0469 18.8314C12.1272 19.0074 12.108 19.2316 12.0891 19.4192L9.15624 19.4182Z" fill="#192D6C"/>
<path d="M3.783 23.7914C3.7622 23.5871 3.75448 23.3878 3.89606 23.2203C3.96693 23.1365 4.05338 23.0828 4.15341 23.0409L4.18217 23.0287C4.27871 22.9916 4.38726 22.999 4.4893 22.9988L5.02619 22.9991C5.39422 22.9981 5.81 22.9589 6.17315 23.0042C6.23717 23.0122 6.29756 23.0291 6.3554 23.0581C6.50783 23.1345 6.61228 23.2792 6.65774 23.4402C6.70525 23.6084 6.68421 23.7989 6.67891 23.9726L4.77754 23.9603C4.56202 23.9591 4.22441 24.0009 4.02448 23.9382L4.00219 23.9305C3.91095 23.8999 3.85465 23.855 3.783 23.7914Z" fill="#192D6C"/>
<path d="M3.78441 14.6856C3.75849 14.5785 3.7443 14.4664 3.7678 14.3576C3.80446 14.1875 3.91022 14.038 4.06297 13.9525C4.12848 13.9158 4.19339 13.8952 4.26797 13.8871C4.60949 13.8502 4.98874 13.8816 5.33347 13.8817L5.89418 13.88C6.02092 13.8792 6.16297 13.8663 6.28441 13.9069L6.31521 13.9181C6.42362 13.9564 6.51012 14.0069 6.58163 14.0999C6.70395 14.259 6.69846 14.4503 6.67506 14.6398C6.59871 14.7167 6.52291 14.8 6.41743 14.8356C6.32047 14.8684 6.20098 14.8555 6.0989 14.8563L5.47231 14.8593L4.53551 14.8614C4.38518 14.8621 4.2033 14.8859 4.05836 14.8515C3.94795 14.8253 3.86778 14.7587 3.78441 14.6856Z" fill="#192D6C"/>
<path d="M14.5961 23.9652C14.5934 23.7225 14.5442 23.3998 14.7226 23.2083C14.8495 23.0721 15.0268 23.003 15.2107 23.0016L16.4453 23.0029C16.645 23.0039 16.8769 22.9831 17.0715 23.0206C17.1772 23.0411 17.2819 23.0941 17.3576 23.1712C17.5686 23.3859 17.5276 23.6905 17.5191 23.9637L14.5961 23.9652Z" fill="#192D6C"/>
<path d="M9.17343 28.1863C9.14491 27.9846 9.14565 27.8208 9.27225 27.6491C9.36126 27.5284 9.52793 27.4438 9.67598 27.4283C10.0001 27.3944 10.3525 27.4225 10.6804 27.4224C10.971 27.4223 11.3073 27.3876 11.5896 27.4353C11.7076 27.4553 11.8243 27.5113 11.9145 27.59C12.0299 27.6907 12.101 27.8253 12.1052 27.9787C12.1073 28.0573 12.0991 28.1452 12.0854 28.2224C11.9842 28.2976 11.895 28.3647 11.7704 28.3943C11.6632 28.4198 11.5262 28.4104 11.4166 28.4101L10.8497 28.4073C10.4195 28.4044 9.97711 28.4234 9.54803 28.3976C9.38867 28.388 9.27486 28.3034 9.17343 28.1863Z" fill="#192D6C"/>
<path d="M3.7593 28.1888C3.74739 27.9675 3.74125 27.8072 3.89902 27.6308C4.02525 27.4897 4.16005 27.4298 4.34886 27.4242L5.60791 27.4197C5.79272 27.4201 6.0281 27.3947 6.20593 27.4346C6.31746 27.4596 6.42945 27.5187 6.51241 27.5974C6.63567 27.7142 6.68815 27.8427 6.68727 28.0104L6.68336 28.1746L6.61077 28.2449C6.53898 28.306 6.45407 28.3669 6.3612 28.3894C6.09301 28.4544 5.7172 28.411 5.43775 28.4114C5.01137 28.4121 4.55651 28.443 4.13306 28.4025C3.96049 28.386 3.8698 28.3215 3.7593 28.1888Z" fill="#192D6C"/>
<path d="M9.15772 23.9676C9.15279 23.689 9.10007 23.3897 9.3134 23.1719C9.39153 23.0921 9.49454 23.0338 9.60337 23.0079C9.7973 22.9619 10.062 22.9974 10.2655 22.9979L11.5267 22.9977C11.6801 23.0002 11.8369 23.0764 11.942 23.1873C12.1367 23.3928 12.088 23.7081 12.085 23.968L9.15772 23.9676Z" fill="#192D6C"/>
<path d="M19.983 23.967C19.972 23.6886 19.95 23.382 20.1642 23.1655C20.2228 23.1062 20.2923 23.0734 20.3682 23.0422L20.3989 23.0292C20.6046 22.95 20.9599 23 21.1832 22.9993C21.5741 22.9982 21.9926 22.9666 22.3805 23.0008C22.4508 23.007 22.5166 23.0295 22.58 23.06C22.7324 23.1334 22.8618 23.2703 22.9139 23.4319C22.967 23.5966 22.949 23.7996 22.9484 23.9704L19.983 23.967Z" fill="#192D6C"/>
<path d="M14.6108 28.2112C14.595 28.0131 14.5749 27.8297 14.7134 27.6662C14.8658 27.4862 15.0316 27.4382 15.259 27.4263L16.3167 27.4232C16.5532 27.424 16.8204 27.3997 17.0515 27.4496C17.153 27.4715 17.2548 27.5226 17.3346 27.5894C17.478 27.7094 17.5294 27.8707 17.5359 28.0507L17.5256 28.4128C17.299 28.3941 17.0629 28.4063 16.8353 28.4057L15.5515 28.4055C15.3485 28.4056 15.0874 28.4368 14.8922 28.3896C14.7764 28.3616 14.695 28.2914 14.6108 28.2112Z" fill="#192D6C"/>
<path d="M19.9773 19.4156C19.9659 19.1328 19.9343 18.8714 20.1476 18.6487C20.253 18.5386 20.3948 18.4733 20.544 18.4476C20.7132 18.4185 20.9191 18.4381 21.0926 18.4378L22.2391 18.4407C22.4456 18.4424 22.609 18.4942 22.757 18.6453C22.9322 18.8243 22.9461 19.0097 22.9378 19.2479L22.9307 19.4163L19.9773 19.4156Z" fill="#192D6C"/>
<path d="M14.597 19.2005C14.5794 19.1295 14.5665 19.0633 14.5686 18.9897C14.5733 18.8243 14.6369 18.6768 14.7634 18.5663C14.8522 18.4887 14.9528 18.4358 15.0692 18.416C15.1845 18.3964 15.3163 18.4075 15.4339 18.4077L16.1499 18.4091C16.4288 18.4077 16.7303 18.377 17.0069 18.3978C17.1551 18.4089 17.3296 18.5116 17.4181 18.6295C17.5371 18.7878 17.5418 18.9711 17.5181 19.1597C17.4326 19.244 17.3351 19.3497 17.2168 19.3841C17.0487 19.4329 16.8007 19.4016 16.6238 19.4012L15.2634 19.3949C15.0021 19.393 14.8043 19.3818 14.597 19.2005Z" fill="#192D6C"/>
<path d="M19.9882 28.4091L19.982 28.256C19.975 28.0246 19.985 27.7908 20.1599 27.6167C20.2399 27.5372 20.353 27.4752 20.4625 27.4485C20.6438 27.4044 20.8475 27.4213 21.0334 27.4205L22.0541 27.4199C22.3439 27.4209 22.5683 27.4277 22.7825 27.6526C22.9821 27.8623 22.9523 28.1327 22.9472 28.3986L19.9882 28.4091Z" fill="#192D6C"/>
<path d="M19.9729 14.8796C19.9664 14.5859 19.9305 14.3253 20.1512 14.0964C20.3187 13.9226 20.5212 13.8923 20.7501 13.8938L21.8781 13.8959C22.0417 13.8958 22.2447 13.8741 22.4043 13.9063C22.546 13.9348 22.669 14.0001 22.7705 14.103C22.9373 14.2723 22.944 14.4476 22.9373 14.6722L22.93 14.8779L19.9729 14.8796Z" fill="#192D6C"/>
<path d="M14.5914 14.6878C14.5621 14.5573 14.5376 14.4193 14.5775 14.2882C14.6211 14.1454 14.7494 14.02 14.879 13.9517C14.9525 13.913 15.0368 13.899 15.1188 13.892C15.5266 13.8574 15.9623 13.8861 16.3733 13.8869C16.5943 13.8874 16.9209 13.8427 17.1275 13.9111L17.1575 13.9221C17.2594 13.9582 17.338 14.0097 17.4082 14.0935C17.548 14.2608 17.5402 14.4463 17.5212 14.6485C17.4117 14.7392 17.2951 14.8442 17.152 14.8746C16.9316 14.9215 16.6379 14.8859 16.4099 14.8857C15.9531 14.8854 15.4611 14.9186 15.009 14.8753C14.8384 14.859 14.7206 14.7956 14.5914 14.6878Z" fill="#192D6C"/>
<path d="M14.6109 28.2129C14.695 28.2931 14.7764 28.3632 14.8922 28.3912C15.0874 28.4385 15.3486 28.4073 15.5516 28.4071L16.8353 28.4074C17.063 28.408 17.299 28.3957 17.5257 28.4144C17.525 28.7389 17.5749 29.1239 17.3395 29.3842C17.2327 29.5023 17.0837 29.5823 16.9236 29.5872L15.8553 29.5866C15.6122 29.5857 15.3373 29.612 15.1016 29.5544C14.9784 29.5242 14.8766 29.4619 14.7887 29.3709C14.5318 29.1049 14.6114 28.5592 14.6109 28.2129Z" fill="#FFCC00"/>
<path d="M3.76175 28.19C3.87225 28.3227 3.96293 28.3872 4.13551 28.4037C4.55896 28.4442 5.01382 28.4134 5.4402 28.4127C5.71965 28.4122 6.09546 28.4556 6.36364 28.3906C6.45651 28.3681 6.54143 28.3072 6.61322 28.2461L6.68581 28.1758C6.6852 28.5396 6.75569 29.038 6.50783 29.3361C6.40254 29.4627 6.24155 29.5732 6.07284 29.5827C5.7102 29.6032 5.33542 29.5841 4.97152 29.585C4.75498 29.5855 4.47814 29.617 4.26779 29.5753C4.15877 29.5537 4.03715 29.4862 3.95768 29.4093C3.66776 29.1286 3.75919 28.5657 3.76175 28.19Z" fill="#FFCC00"/>
<path d="M19.9908 28.4109L22.9499 28.4004C22.9466 28.7261 23.0098 29.1316 22.7532 29.3786C22.6444 29.4833 22.53 29.5518 22.381 29.5831C22.1881 29.6236 21.9489 29.5971 21.7518 29.5958L20.6755 29.5841C20.4712 29.5761 20.2864 29.4902 20.1473 29.3379C19.9336 29.1039 19.9919 28.7042 19.9908 28.4109Z" fill="#FFCC00"/>
<path d="M3.77916 19.2255C3.80605 19.2612 3.83243 19.2965 3.86458 19.3277C3.92549 19.3869 3.99486 19.424 4.07912 19.4374C4.19237 19.4554 4.31944 19.4439 4.43469 19.4444L5.13056 19.4465L6.26948 19.4602C6.45517 19.4537 6.56303 19.3517 6.68228 19.2246C6.68079 19.6031 6.76217 20.151 6.47257 20.4357C6.373 20.5336 6.24966 20.6034 6.11412 20.6365C5.95388 20.6756 5.74269 20.6505 5.57747 20.65L4.41091 20.6425C4.24397 20.6362 4.06256 20.5563 3.95038 20.4312C3.88989 20.3637 3.8549 20.2929 3.82313 20.2093L3.81094 20.1786C3.76822 20.0607 3.77827 19.9274 3.7786 19.8038L3.77916 19.2255Z" fill="#FFCC00"/>
<path d="M9.17384 28.1855C9.27527 28.3026 9.38908 28.3872 9.54843 28.3968C9.97752 28.4226 10.4199 28.4036 10.8501 28.4065L11.417 28.4093C11.5266 28.4096 11.6636 28.419 11.7709 28.3935C11.8954 28.3639 11.9846 28.2968 12.0858 28.2216C12.0859 28.503 12.1375 28.9279 12.0305 29.1843C11.9612 29.3504 11.8195 29.484 11.6527 29.5497C11.4816 29.6171 11.2804 29.5955 11.0991 29.5947L10.329 29.5953C10.1256 29.5951 9.78187 29.6347 9.59855 29.5524L9.5717 29.5393C9.48455 29.4982 9.41881 29.4503 9.35176 29.3801C9.08357 29.0993 9.17146 28.5517 9.17384 28.1855Z" fill="#FFCC00"/>
<path d="M3.78155 23.793C3.8532 23.8565 3.9095 23.9015 4.00074 23.9321L4.02303 23.9398C4.22296 24.0024 4.56057 23.9607 4.77609 23.9619L6.67746 23.9742C6.65996 24.2957 6.74083 24.6553 6.51326 24.9192C6.38629 25.0664 6.1811 25.1653 5.98731 25.1751L4.92181 25.182C4.72453 25.1823 4.49413 25.2077 4.30318 25.1643C4.18783 25.1381 4.07137 25.0781 3.98646 24.9956C3.69277 24.7103 3.77843 24.171 3.78155 23.793Z" fill="#FFCC00"/>
<path d="M14.5977 23.9625L17.5206 23.9609C17.5161 24.2809 17.5697 24.6843 17.3442 24.9424C17.214 25.0912 17.0274 25.1543 16.835 25.1659C16.5175 25.1849 16.1917 25.1735 15.8733 25.1749C15.6372 25.176 15.353 25.2041 15.1211 25.1548C15.0118 25.1315 14.8782 25.0664 14.7978 24.9878C14.5245 24.7205 14.5957 24.3105 14.5977 23.9625Z" fill="#FFCC00"/>
<path d="M19.9828 23.9668L22.9481 23.9702C22.9475 24.2872 22.9982 24.6586 22.7696 24.9103C22.6159 25.0797 22.4298 25.1586 22.2059 25.1649L21.1362 25.1689C20.9613 25.1688 20.7527 25.1912 20.5834 25.1517C20.4342 25.1169 20.277 25.0312 20.1702 24.921C19.9202 24.6632 19.9801 24.2948 19.9828 23.9668Z" fill="#FFCC00"/>
<path d="M9.15864 19.4199L12.0915 19.4209C12.0729 19.7517 12.1564 20.1238 11.9213 20.3942C11.7936 20.5411 11.6424 20.6232 11.447 20.6346C11.1247 20.6535 10.7933 20.6287 10.4699 20.6311C10.2179 20.633 9.91686 20.6787 9.67408 20.6327C9.55608 20.6103 9.44004 20.5342 9.3542 20.4525C9.09024 20.2013 9.16241 19.7527 9.15864 19.4199Z" fill="#FFCC00"/>
<path d="M9.1576 23.9688L12.0849 23.9692C12.0856 24.2933 12.154 24.6974 11.9121 24.9501C11.7517 25.1176 11.5605 25.1729 11.3347 25.1759L10.2465 25.181C10.0685 25.1811 9.86199 25.2026 9.68886 25.1632C9.56095 25.1341 9.42607 25.0559 9.33534 24.9618C9.08558 24.7027 9.15425 24.2986 9.1576 23.9688Z" fill="#FFCC00"/>
<path d="M19.9779 19.416L22.9312 19.4167C22.9311 19.6199 22.9717 19.9476 22.9063 20.1348C22.8417 20.3198 22.687 20.4981 22.5099 20.5822C22.4434 20.6138 22.3773 20.6278 22.3043 20.6333C22.0421 20.6531 21.7686 20.6323 21.5046 20.6337L20.9137 20.6398C20.773 20.641 20.6164 20.6504 20.483 20.5995C20.2982 20.5289 20.1321 20.3994 20.0495 20.2163L20.0357 20.1841C19.9464 19.9791 19.9875 19.6424 19.9779 19.416Z" fill="#FFCC00"/>
<path d="M19.9762 14.8786L22.9333 14.877C22.9331 15.0884 22.9747 15.4248 22.8984 15.6183L22.8859 15.647L22.873 15.6786C22.7964 15.8572 22.6605 15.9923 22.4781 16.0602L22.4411 16.0732C22.3 16.1238 22.1423 16.1079 21.9938 16.1087L21.171 16.1098C20.9739 16.1093 20.7321 16.1351 20.5423 16.0924C20.3505 16.0492 20.171 15.9069 20.0738 15.7381L20.0556 15.7052C19.94 15.4991 19.9804 15.119 19.9762 14.8786Z" fill="#FFCC00"/>
<path d="M14.589 14.6858C14.7181 14.7936 14.836 14.857 15.0066 14.8733C15.4587 14.9166 15.9507 14.8835 16.4075 14.8837C16.6355 14.8839 16.9292 14.9195 17.1496 14.8727C17.2927 14.8422 17.4093 14.7372 17.5188 14.6465C17.5187 15.0351 17.6028 15.5906 17.3087 15.8836C17.1973 15.9947 17.0477 16.0725 16.8937 16.1052C16.744 16.137 16.5401 16.113 16.3841 16.1116L15.3788 16.1051C15.1373 16.1021 14.9481 16.0498 14.7712 15.875C14.5775 15.6835 14.5736 15.4634 14.5795 15.2096L14.589 14.6858Z" fill="#FFCC00"/>
<path d="M14.5941 19.2009C14.8014 19.3822 14.9992 19.3934 15.2605 19.3954L16.6209 19.4016C16.7978 19.402 17.0458 19.4333 17.2139 19.3845C17.3322 19.3501 17.4297 19.2444 17.5152 19.1602C17.5188 19.5288 17.6009 20.1375 17.3269 20.4156C17.1646 20.5803 17.0072 20.6445 16.7786 20.6397L15.7776 20.6281C15.5615 20.6282 15.2879 20.6596 15.0814 20.596C14.9481 20.5549 14.8314 20.4711 14.7386 20.3682C14.5084 20.1128 14.5932 19.5323 14.5941 19.2009Z" fill="#FFCC00"/>
<path d="M3.7852 14.6865C3.86858 14.7596 3.94875 14.8261 4.05916 14.8523C4.2041 14.8867 4.38597 14.8629 4.53631 14.8622L5.4731 14.8601L6.0997 14.8571C6.20178 14.8563 6.32126 14.8692 6.41823 14.8365C6.52371 14.8009 6.5995 14.7175 6.67586 14.6406L6.6679 15.1819C6.6638 15.4415 6.69014 15.6954 6.49374 15.8978C6.39901 15.9954 6.26227 16.073 6.13064 16.1066C5.94155 16.1547 5.71989 16.1319 5.52535 16.1318L4.43594 16.1261C4.25323 16.1234 4.08056 16.0388 3.95592 15.9062C3.69145 15.625 3.78171 15.0505 3.7852 14.6865Z" fill="#FFCC00"/>
<path d="M9.15545 14.8268L12.0856 14.8262C12.0865 15.1286 12.162 15.5917 11.953 15.8301C11.8351 15.9646 11.6752 16.08 11.491 16.0876L10.3225 16.0894C10.1196 16.0888 9.8744 16.1147 9.6761 16.0735C9.53996 16.0452 9.40926 15.9676 9.31206 15.8691C9.08947 15.6435 9.16029 15.1247 9.15545 14.8268Z" fill="#FFCC00"/>
<path d="M20.2642 3.28315L21.4899 3.2778C21.7739 3.27701 22.0858 3.24774 22.361 3.32228C22.5716 3.37932 22.7758 3.50458 22.9326 3.65454C23.194 3.90453 23.3448 4.23307 23.3496 4.59599L23.3475 8.66105L23.3505 9.76935C23.3516 9.95956 23.3737 10.1818 23.3383 10.3682C23.2946 10.598 23.1708 10.8132 23.0065 10.9781C22.8419 11.1432 22.6325 11.2628 22.399 11.2952C22.2286 11.3188 22.0462 11.3065 21.874 11.3062L20.9597 11.3071L17.6383 11.3132L6.4686 11.303L5.04321 11.3039C4.79703 11.3038 4.52261 11.3275 4.28118 11.2856C4.1221 11.2579 3.95929 11.1834 3.82813 11.0901C3.58232 10.9154 3.38621 10.6243 3.33977 10.3249L3.33414 10.2858C3.31842 10.1838 3.31562 10.089 3.31511 9.98594L3.31465 6.05906L3.31432 5.03591C3.31376 4.84031 3.2939 4.61832 3.33158 4.4263C3.39021 4.12773 3.51393 3.87857 3.73075 3.66277C3.9492 3.44535 4.22557 3.33019 4.52875 3.29362C4.71524 3.2711 4.91614 3.28599 5.10402 3.28697L6.01598 3.28813L9.2487 3.29008L20.2642 3.28315Z" fill="#192D6C"/>
<path d="M4.56107 4.25393L17.2295 4.24956C17.8403 4.24974 22.0342 4.20526 22.2066 4.29171C22.2879 4.33252 22.3573 4.4386 22.3764 4.52519C22.4138 4.69483 22.3917 4.90556 22.392 5.07902L22.3929 6.24813L22.3916 8.71356L22.3889 10.0514C22.3865 10.1201 22.3759 10.1827 22.3356 10.2403C22.2779 10.3228 22.2101 10.3234 22.1193 10.3342L20.2638 10.3316L17.1197 10.3278L8.62916 10.3344L5.73618 10.3397H4.91892C4.76216 10.3394 4.59694 10.3546 4.44447 10.3129C4.39822 10.2757 4.3429 10.2357 4.31735 10.1805C4.25766 10.0516 4.28557 5.20236 4.30521 4.71665C4.3093 4.61522 4.31219 4.51468 4.35183 4.41948C4.39287 4.32098 4.46652 4.29008 4.56107 4.25393Z" fill="white"/>
</svg>
