<svg width="37" height="34" viewBox="0 0 37 34" fill="none" xmlns="http://www.w3.org/2000/svg">
<path d="M35.8062 16.8633C35.7217 17.2025 35.5047 17.474 35.2021 17.6506C34.955 17.7949 34.5132 17.9493 34.2324 17.8746C34.3789 17.8343 34.5322 17.8134 34.6757 17.7634C35.1688 17.5918 35.5048 17.2801 35.8062 16.8633Z" fill="#FFCC00"/>
<path d="M30.3691 26.291C30.5554 26.2964 30.742 26.2961 30.9248 26.3358L30.9552 26.342C31.0731 26.3687 31.1908 26.4451 31.297 26.5012C31.7061 26.7177 32.0801 26.9383 32.325 27.3522C32.4316 27.5325 32.4554 27.784 32.403 27.9872L32.3302 28.2248L33.3527 29.6884C33.2663 29.7212 33.1719 29.7103 33.0809 29.7105L32.5118 29.7097L30.3691 26.291Z" fill="#FFCC00"/>
<path d="M24.5801 2.61523C25.5613 2.62604 26.5538 2.73299 27.5041 2.98403C29.5142 3.51496 31.4542 4.67196 32.7588 6.30699C33.1249 6.76583 33.4334 7.27539 33.7291 7.78103L24.5801 2.61523Z" fill="#FFCC00"/>
<path d="M10.0187 2.63281L11.0815 2.64585L2.54106 7.70177C2.31725 7.83961 2.10449 7.995 1.86719 8.10929C1.9365 7.89271 2.04831 7.68665 2.14966 7.48356C2.49465 6.79208 2.90906 6.20656 3.42526 5.63443C4.58406 4.35005 6.09627 3.4183 7.76873 2.96799C8.50657 2.76931 9.25754 2.67213 10.0187 2.63281Z" fill="#FFCC00"/>
<path d="M33.3527 29.6894C33.4821 29.7124 33.6378 29.7018 33.7705 29.7052L33.7797 23.3748L33.7754 21.2114C33.774 20.8681 33.7487 20.5097 33.7698 20.1678C33.776 20.0674 33.8087 19.9702 33.8751 19.8936C33.9537 19.8031 34.0535 19.7652 34.1725 19.759C34.329 19.751 34.4564 19.8853 34.5629 19.9812L34.5774 29.9223C34.7532 30.0035 34.9204 30.1104 35.065 30.2395C35.4634 30.5953 35.7262 31.0886 35.7523 31.6277C35.7812 32.2252 35.6097 32.7947 35.2004 33.2404C34.8198 33.6549 34.2771 33.9621 33.7077 33.9857L31.4717 33.9867L27.2831 33.986L13.8515 33.9869L5.78149 33.9858L3.3522 33.9889C2.9243 33.9895 2.46695 34.0211 2.04243 33.9749C1.56371 33.9228 1.07438 33.6752 0.726214 33.3477C0.296235 32.9432 0.0131688 32.3589 0.000426136 31.7653C-0.0126636 31.1524 0.2766 30.5763 0.758839 30.2023C0.806488 30.1653 0.995645 30.0594 1.01701 30.0184C1.03908 29.976 1.01052 25.4493 1.01067 24.8474L1.01017 14.5989L1.01067 11.6702L1.01082 10.863C1.01057 10.6885 0.999115 10.5002 1.02515 10.3276C1.07661 9.98659 1.24574 9.65691 1.48304 9.409C1.71553 9.1661 1.99503 9.02394 2.28028 8.85645L3.22839 8.30153L5.00275 7.25187L7.55014 5.71705L12.9777 2.53802L15.8776 0.82827C16.2283 0.622652 16.5701 0.377467 16.9306 0.192376C17.191 0.058652 17.4346 0.00698701 17.7244 0.000442135C17.9748 -0.00521026 18.215 0.0431324 18.4387 0.157073C18.6956 0.287921 18.9417 0.451245 19.1929 0.594092L20.9714 1.60166L26.6316 4.7964L32.5515 8.11807L34.4493 9.16783C34.7175 9.31901 35.0498 9.45536 35.2701 9.67045C35.4982 9.89313 35.5458 10.1695 35.5483 10.4728C35.5529 11.0366 35.6639 11.7476 35.2318 12.1779C34.9044 12.5041 34.5344 12.4896 34.1098 12.4874L34.1096 15.0505L36.0969 15.1103C36.0947 15.7493 36.1059 16.2833 35.8054 16.8624C35.504 17.2792 35.168 17.5909 34.6749 17.7625C34.5314 17.8125 34.3781 17.8334 34.2316 17.8737C33.5545 17.8761 32.9604 17.7029 32.4718 17.2175C31.914 16.6632 31.834 16.0692 31.8383 15.3164L31.8554 15.0439L33.2883 15.0384L33.2877 12.5185C33.0508 12.463 32.7051 12.5023 32.4559 12.5L30.2388 12.498C30.1951 12.6598 30.1485 12.8183 30.077 12.9704C30.0164 13.0992 29.8887 13.2628 29.8621 13.3993C29.8234 13.5985 29.8665 13.8887 29.8673 14.0965L29.8703 16.2001L29.8452 21.8924L29.8232 25.4474L30.3692 26.292L32.5119 29.7107L33.0809 29.7115C33.1719 29.7113 33.2663 29.7222 33.3527 29.6894Z" fill="#192D6C"/>
<path d="M26.5015 24.0744L26.8583 23.6254C26.9069 23.5632 26.9734 23.4554 27.0438 23.4205C27.1004 23.3923 27.1779 23.385 27.2401 23.375C27.0104 23.7141 26.786 24.0901 26.5 24.3837L26.5015 24.0744Z" fill="#FFCC00"/>
<path d="M19.0299 16.941C18.7927 16.8716 18.6089 16.7617 18.4466 16.5741C18.2727 16.3731 18.1781 16.1771 18.1954 15.9094C18.2591 15.8524 18.4176 15.8793 18.5057 15.8799C18.5269 16.2518 18.6196 16.5548 18.9077 16.8077L19.0181 16.8962L19.0299 16.941Z" fill="white"/>
<path d="M26.5029 24.0743L26.502 22.3164C26.5873 22.3845 26.662 22.5232 26.7258 22.6138C26.8874 22.8429 27.1405 23.1198 27.2415 23.3749C27.1793 23.3849 27.1018 23.3922 27.0452 23.4204C26.9748 23.4553 26.9083 23.5631 26.8597 23.6253L26.5029 24.0743Z" fill="white"/>
<path d="M28.9776 22.3809C29.0394 22.4514 29.004 24.1347 29.0035 24.3914L28.7018 23.9792L28.2168 23.3389L28.9776 22.3809Z" fill="white"/>
<path d="M29.0045 18.248L29.0144 20.2972L28.6944 19.8416L28.2246 19.1728C28.4454 18.8528 28.7451 18.539 29.0045 18.248Z" fill="white"/>
<path d="M26.5 18.1094L27.2859 19.2056C27.2523 19.2845 27.1729 19.3546 27.1173 19.4203L26.8519 19.7534L26.5004 20.2537L26.5 18.1094Z" fill="white"/>
<path d="M27.743 23.9824L28.5969 25.0917L27.8383 25.09L26.9492 25.0863L27.743 23.9824Z" fill="white"/>
<path d="M29.0044 14.1504C29.0666 14.2162 29.0305 15.8888 29.0296 16.122L28.6783 15.6167C28.5164 15.3915 28.292 15.1396 28.1777 14.8902L28.4402 14.5176C28.4638 14.4812 28.5076 14.3817 28.5375 14.3565C28.5626 14.3354 28.6471 14.3129 28.6807 14.2989L29.0044 14.1504Z" fill="white"/>
<path d="M26.4941 14.1211C26.7912 14.2396 27.0561 14.3649 27.3656 14.4563L27.3715 14.4854C27.3793 14.5282 27.4122 14.6838 27.4014 14.7262C27.3927 14.7611 27.3068 14.8527 27.2809 14.8899L26.9147 15.4259L26.4959 15.9988L26.4941 14.1211Z" fill="white"/>
<path d="M28.5954 21.0254L28.8542 21.3509L27.7644 22.6988L27.7402 22.7015L26.873 21.5158C26.9742 21.4863 27.0861 21.4844 27.1909 21.4753L27.6684 22.1835C27.9104 21.7861 28.2451 21.3324 28.5954 21.0254Z" fill="#FFCC00"/>
<path d="M28.1539 16.1895L28.6655 16.8745C28.745 16.9854 28.8393 17.098 28.89 17.225C28.5884 17.6913 28.171 18.1255 27.8212 18.5602L27.0371 17.5688L27.0922 17.515C27.1555 17.4649 27.2515 17.4546 27.3291 17.4594C27.4531 17.6591 27.5468 17.8352 27.6136 18.0615C27.7173 17.9402 28.1355 17.5542 28.1667 17.4364C28.1852 17.3667 28.1533 17.2073 28.1526 17.1278L28.1539 16.1895Z" fill="#FFCC00"/>
<path d="M18.1638 10.3871C18.264 10.3802 18.3726 10.3881 18.4688 10.4175C18.6508 10.4732 18.7899 10.6204 18.8683 10.7902C18.9414 10.9484 18.9458 11.1192 18.8797 11.2805C18.7885 11.5035 18.6082 11.6008 18.3971 11.684C18.2369 11.6978 18.0904 11.7127 17.9447 11.6274C17.7823 11.5325 17.6722 11.3717 17.6256 11.1919C17.5826 11.026 17.6088 10.8324 17.7009 10.686C17.8156 10.5035 17.9638 10.4344 18.1638 10.3871Z" fill="#FFCC00"/>
<path d="M1.63038 32.9602C1.50478 32.8988 1.37815 32.7986 1.27933 32.7006C1.02542 32.4487 0.836314 32.0728 0.837901 31.712C0.839239 31.4008 0.98045 31.0931 1.20159 30.8765C1.34681 30.7342 1.54157 30.6202 1.7406 30.575C1.87095 30.5454 2.0257 30.5604 2.15977 30.5605L2.94694 30.5628L2.92929 30.5759C2.76656 30.6907 2.55915 30.7454 2.37719 30.8248C1.89916 31.0335 1.48936 31.4372 1.38995 31.9627C1.31845 32.3405 1.44543 32.6366 1.63038 32.9602Z" fill="white"/>
<path d="M18.5059 15.8809L20.601 15.885C20.4746 16.3085 20.3083 16.6424 19.9005 16.8595C19.6587 16.9881 19.3571 17.0383 19.0893 16.9636L19.0301 16.942L19.0183 16.8972L18.9079 16.8087C18.6198 16.5558 18.5271 16.2527 18.5059 15.8809Z" fill="#FFCC00"/>
<path d="M27.0361 17.5677L26.6426 17.1072L27.7256 15.5938C27.8947 15.743 28.0282 15.9985 28.1529 16.1883L28.1516 17.1266C28.1523 17.2062 28.1842 17.3656 28.1657 17.4353C28.1345 17.553 27.7163 17.939 27.6126 18.0604C27.5458 17.8341 27.4521 17.658 27.3281 17.4582C27.2505 17.4534 27.1545 17.4637 27.0912 17.5139L27.0361 17.5677Z" fill="white"/>
<path d="M26.8758 21.5168L26.6816 21.273C26.7006 21.1976 26.7744 21.1196 26.8221 21.0583L27.169 20.6244L27.7468 19.8789L28.5982 21.0263C28.2478 21.3334 27.9131 21.7871 27.6712 22.1844L27.1936 21.4763C27.0888 21.4853 26.9769 21.4873 26.8758 21.5168Z" fill="white"/>
<path d="M30.1621 11.2201L31.6307 11.2011L33.4623 11.2046C33.7317 11.2052 34.1313 11.2559 34.3847 11.1741L34.4163 11.1628C34.5486 11.1171 34.632 11.0167 34.7262 10.918C34.7335 11.0828 34.7885 11.4114 34.6823 11.5397C34.6124 11.624 34.5132 11.6635 34.4061 11.6718L30.2527 11.6794L30.1621 11.2201Z" fill="#FFCC00"/>
<path d="M32.6621 15.8398L35.251 15.8475C35.1982 16.1965 35.1296 16.3929 34.899 16.6644C34.751 16.7996 34.5815 16.9124 34.3874 16.9682C34.0486 17.0656 33.6227 17.0111 33.3221 16.8285C32.9433 16.5983 32.7609 16.2633 32.6621 15.8398Z" fill="#FFCC00"/>
<path d="M24.675 29.713L23.7891 29.714L26.2625 25.8889L29.1194 25.8789L29.4449 26.3958L26.9327 26.3719L24.675 29.713Z" fill="white"/>
<path d="M6.06459 16.7606L5.19531 16.7641L5.23121 16.6718C5.39439 16.2724 5.61443 15.8891 5.8023 15.5005L7.21386 12.653L7.78242 11.5161C7.86666 11.3456 7.93613 11.1583 8.03738 10.9979C8.14066 10.8343 8.28216 10.7106 8.46344 10.6402C8.60271 10.5861 8.73956 10.5715 8.8776 10.6386C9.09006 10.7419 9.14644 10.8603 9.22398 11.0679C8.99843 11.1064 8.86114 11.1545 8.71859 11.3526C8.63266 11.472 8.57306 11.6218 8.51089 11.7547L8.18994 12.4424L7.21089 14.4544C6.83763 15.2256 6.38896 15.9678 6.06459 16.7606Z" fill="white"/>
<path d="M19.7487 11.1585C19.7352 10.894 19.6712 10.6834 19.5879 10.4346L27.5216 8.80273L27.5261 9.46213C27.1205 9.5078 26.7903 9.6318 26.4227 9.79929C25.9037 9.81312 25.3453 9.98993 24.8364 10.0988L21.2845 10.8266C20.7816 10.9302 20.2586 11.1121 19.7487 11.1585Z" fill="white"/>
<path d="M14.3242 20.8714L14.3254 20.2406L22.8969 20.2344L23.6835 20.8872L14.3242 20.8714Z" fill="#FFCC00"/>
<path d="M14.3234 20.8722L13.6998 20.873L13.6952 19.9692C13.6955 19.8477 13.6746 19.6855 13.7108 19.5703L20.5086 19.5767L21.8219 19.5814C21.9127 19.5819 22.0972 19.5579 22.1799 19.5834C22.3153 19.6251 22.7637 20.1085 22.8961 20.2352L14.3246 20.2415L14.3234 20.8722Z" fill="white"/>
<path d="M19.7474 11.1581C20.2573 11.1116 20.7802 10.9298 21.2831 10.8262L24.835 10.0983C25.344 9.98947 25.9023 9.81266 26.4214 9.79883C25.9958 10.0822 25.627 10.4488 25.4218 10.9248C25.3263 11.1463 25.2838 11.3803 25.2356 11.6152C25.2321 11.6322 25.24 11.6573 25.2251 11.6663C25.1877 11.6888 20.176 11.666 19.6016 11.6668C19.6743 11.4992 19.7266 11.3411 19.7474 11.1581Z" fill="#FFCC00"/>
<path d="M4.90661 29.706L4.23438 29.7116L4.23765 17.5684L4.88123 17.57L4.90661 29.706Z" fill="white"/>
<path d="M27.6305 10.2933C28.0005 10.2585 28.3773 10.3729 28.6895 10.5675C29.0365 10.7838 29.3179 11.2001 29.4057 11.5979C29.507 12.0568 29.4072 12.5012 29.152 12.8922C28.8635 13.3339 28.4786 13.5254 27.9776 13.6334C27.5275 13.6614 27.1017 13.5775 26.7395 13.2961C26.392 13.0261 26.1301 12.5999 26.0805 12.1597C26.0298 11.7095 26.1364 11.2648 26.4234 10.9092C26.7308 10.5284 27.151 10.344 27.6305 10.2933Z" fill="#FFCC00"/>
<path d="M24.6738 29.7142L26.9315 26.373L29.4437 26.3969L31.5336 29.7032L24.6738 29.7142Z" fill="#FFCC00"/>
<path d="M9.22384 11.0664L11.8312 16.7517L6.06445 16.7591C6.38882 15.9663 6.83749 15.2241 7.21075 14.4529L8.1898 12.4409L8.51075 11.7532C8.57293 11.6203 8.63253 11.4705 8.71845 11.3511C8.861 11.153 8.99829 11.1049 9.22384 11.0664Z" fill="#FFCC00"/>
<path d="M15.8269 24.9136C16.3608 24.861 16.936 24.9082 17.4741 24.9075L18.5541 24.9056C18.7188 24.9054 18.9728 24.8733 19.1225 24.9344C19.2111 24.9705 19.288 25.0624 19.3215 25.1507C19.3783 25.3002 19.3605 25.4791 19.3612 25.6368L19.3626 26.3713L19.3639 28.6011L19.3635 29.3766C19.3634 29.4748 19.3816 29.6167 19.3428 29.7063L19.1907 29.7149L15.6271 29.7129L15.6108 26.5063L15.6105 25.6143C15.6111 25.4847 15.5953 25.3219 15.6301 25.1975L15.6383 25.171C15.6741 25.0512 15.7363 24.9947 15.8269 24.9136Z" fill="white"/>
<path d="M2.94831 30.5643L4.97742 30.5455L8.62277 30.5468L19.7028 30.5452L29.1954 30.5457L32.1706 30.5478C32.7185 30.5477 33.2835 30.5212 33.8295 30.561C34.0739 30.5789 34.3318 30.719 34.5101 30.8842C34.7566 31.1126 34.9143 31.4344 34.9235 31.7724C34.9326 32.1099 34.7314 32.5386 34.4951 32.7723C34.2556 33.0092 33.9465 33.1436 33.611 33.172C33.1611 33.2101 32.694 33.1875 32.2422 33.1883L29.7704 33.1909L21.9173 33.1878L8.95745 33.1877L4.74751 33.1883L2.43543 33.1839C2.14959 33.1776 1.87034 33.1303 1.63175 32.9617C1.4468 32.6381 1.31982 32.342 1.39132 31.9642C1.49073 31.4387 1.90053 31.035 2.37856 30.8263C2.56052 30.7469 2.76793 30.6922 2.93066 30.5774L2.94831 30.5643Z" fill="#FFCC00"/>
<path d="M4.88086 17.5684L12.8463 17.5746L12.8564 20.1522C12.8577 20.5318 12.8211 20.951 12.8657 21.3256C12.8762 21.4141 12.9117 21.5002 12.9746 21.5648C13.0521 21.6444 13.1535 21.6937 13.2637 21.7069C13.5708 21.7434 13.9161 21.7131 14.2263 21.7127L16.2984 21.713L21.9417 21.7308L21.9619 29.706L20.1836 29.6993L20.1965 26.6255L20.1952 25.6769C20.1944 25.466 20.2046 25.2457 20.1655 25.0376C20.1268 24.8316 20.0217 24.6208 19.8792 24.4662C19.6572 24.2255 19.3497 24.0999 19.0236 24.0911L17.0165 24.088L16.2731 24.0891C16.0636 24.0895 15.8532 24.081 15.6477 24.1309C15.4419 24.181 15.2512 24.3033 15.1016 24.4515C14.9408 24.6107 14.841 24.8209 14.7954 25.041C14.7603 25.2101 14.7721 25.3936 14.7717 25.5659L14.7731 26.4744L14.7795 29.705L4.90625 29.7043L4.88086 17.5684Z" fill="#FFCC00"/>
<path d="M9.27456 24.6668C9.36608 24.6616 9.45642 24.6559 9.54627 24.6786C9.69888 24.7171 9.81396 24.8203 9.88769 24.9579C9.91675 25.0121 9.93281 25.0596 9.93708 25.1214C9.97089 25.6108 9.93965 26.1285 9.93856 26.6207C9.93822 26.7925 9.97605 27.0924 9.91749 27.2503C9.84941 27.4339 9.7024 27.5224 9.53675 27.6047C9.45315 27.6131 9.36489 27.6195 9.28229 27.6C9.13196 27.5645 9.0085 27.4614 8.93457 27.3278C8.90259 27.27 8.88176 27.199 8.87571 27.1331C8.83729 26.7175 8.8712 26.2648 8.87205 25.8458C8.87249 25.6094 8.82802 25.2671 8.9013 25.0484C8.9671 24.8522 9.0969 24.7542 9.27456 24.6668Z" fill="#192D6C"/>
<path d="M7.17893 24.6661C7.2772 24.6659 7.37394 24.6641 7.46671 24.701C7.58912 24.7496 7.69667 24.8849 7.73926 25.0074C7.80054 25.1837 7.76886 25.4504 7.7703 25.6406L7.77565 26.6895C7.77605 26.8711 7.81081 27.1288 7.72989 27.2926C7.64173 27.4712 7.48936 27.5548 7.30814 27.6142C7.19123 27.6174 7.08061 27.6106 6.97495 27.555C6.84802 27.4884 6.75649 27.3769 6.71702 27.2389C6.66382 27.0531 6.69431 26.7887 6.69367 26.5924L6.69396 25.5455C6.69461 25.3621 6.66302 25.1144 6.75936 24.9529C6.86339 24.7784 6.98957 24.7148 7.17893 24.6661Z" fill="#192D6C"/>
<path d="M9.24398 20.253C9.34781 20.2414 9.46096 20.2329 9.56245 20.2618C9.69836 20.3005 9.81175 20.3896 9.87928 20.5144C9.90943 20.5701 9.92733 20.6194 9.93363 20.6828C9.95277 20.8751 9.93774 21.0808 9.9373 21.2747L9.93878 22.2795C9.93878 22.4926 9.98395 22.823 9.91756 23.0206C9.85826 23.197 9.72216 23.2893 9.5629 23.368C9.46849 23.3796 9.36298 23.3897 9.26912 23.37C9.13451 23.3417 8.9929 23.2029 8.92656 23.0876C8.89339 23.0299 8.88104 22.9652 8.87554 22.8996C8.83463 22.4106 8.86929 21.8889 8.87028 21.397C8.87068 21.184 8.8269 20.8335 8.88803 20.6357C8.94708 20.4448 9.07496 20.3413 9.24398 20.253Z" fill="#192D6C"/>
<path d="M7.09092 20.2549L7.26609 20.2441C7.41355 20.2456 7.53493 20.2803 7.63652 20.3931C7.69577 20.4589 7.74471 20.5434 7.76132 20.6311C7.80357 20.8538 7.77025 21.142 7.7694 21.3709L7.75498 23.0349C7.65834 23.2101 7.56289 23.2962 7.37706 23.374C7.28751 23.3908 7.18641 23.3986 7.09791 23.3716C6.95695 23.3286 6.82099 23.2226 6.75405 23.0901C6.71791 23.0186 6.70422 22.9354 6.69981 22.856C6.6718 22.3539 6.69505 21.837 6.69594 21.3334C6.69629 21.1192 6.64686 20.7551 6.72981 20.5644C6.80413 20.3934 6.92695 20.3247 7.09092 20.2549Z" fill="#192D6C"/>
<path d="M21.9438 21.7335L23.3237 21.732C23.5385 21.7318 23.7773 21.7537 23.9865 21.7049C24.1126 21.6756 24.2354 21.6031 24.3305 21.5167C24.4839 21.3774 24.5792 21.1701 24.5862 20.9621C24.5931 20.7537 24.5173 20.5711 24.3703 20.4241C24.2169 20.2708 24.0375 20.1392 23.8769 19.9927L23.0904 19.2716C22.9005 19.0975 22.6932 18.8651 22.4486 18.7748C22.2393 18.6974 21.9263 18.7403 21.7031 18.7403L20.3607 18.7364L13.6907 18.7423L13.6874 17.6558C13.6864 17.493 13.7046 17.296 13.6705 17.1382C13.6502 17.0448 13.607 16.9666 13.5404 16.898C13.3524 16.7046 13.0445 16.7556 12.7968 16.7572C12.611 16.2803 12.3589 15.808 12.1387 15.3451L10.8931 12.7183L10.2839 11.4011C10.128 11.0506 10.0011 10.6246 9.76819 10.3196C9.55142 10.0359 9.27331 9.90869 8.92584 9.86035L8.9306 8.47695C8.93119 8.33931 8.95792 8.06854 8.91875 7.94032C8.91473 7.92713 8.88245 7.88286 8.87883 7.8781C8.79415 7.76688 8.6929 7.68378 8.54965 7.67292C8.43433 7.6642 8.30323 7.6998 8.21968 7.78206C8.15999 7.84081 8.11363 7.93363 8.10173 8.01693C8.07589 8.1979 8.09707 8.41041 8.09732 8.59417L8.0994 9.89005C7.82159 10.0127 7.56653 10.236 7.3924 10.4843C7.24321 10.6971 7.14999 10.9527 7.03759 11.1861L6.52719 12.208L4.25136 16.7807L4.02496 16.7719C3.86521 16.768 3.69102 16.7557 3.57069 16.8801C3.49116 16.9624 3.43463 17.0622 3.42313 17.177C3.38327 17.5746 3.41753 18.0041 3.41753 18.4056L3.41763 21.0244L3.4093 29.6951L1.83451 29.697L1.83203 10.5382C1.83868 10.2904 1.9308 10.1042 2.1148 9.93591C2.2397 9.82173 2.40109 9.74398 2.54641 9.65885L3.25996 9.23923L6.0387 7.5924L12.9164 3.52198L15.8143 1.80509L17.2431 0.954259C17.4127 0.860895 17.5649 0.803975 17.7613 0.813544C17.9107 0.820833 18.0275 0.866796 18.157 0.936013L19.5026 1.70866L22.9885 3.67842L32.3575 8.94327L34.0984 9.92149C34.2538 10.0095 34.6042 10.1533 34.7023 10.2855C34.803 10.4211 34.7442 10.7567 34.7288 10.9191C34.6346 11.0179 34.5512 11.1182 34.4189 11.1639L34.3873 11.1752C34.1339 11.257 33.7342 11.2063 33.4649 11.2057L31.6333 11.2022L30.1647 11.2212C29.9381 10.5732 29.4835 10.0102 28.8609 9.70605L28.3431 9.49602L28.3352 8.62486C28.3327 8.4471 28.362 8.18417 28.2243 8.05228C28.158 7.98876 28.095 7.961 28.0125 7.92589L27.9692 7.90626C27.8444 7.85673 25.8676 8.3227 25.5741 8.38329L21.2913 9.26199L19.834 9.55914L19.0145 9.7422C18.9176 9.75965 18.7718 9.67248 18.6786 9.63981C18.2859 9.50212 17.8324 9.59191 17.4766 9.78687C17.1723 9.95357 16.9133 10.276 16.8183 10.6106C16.7041 11.0127 16.7501 11.4319 16.9618 11.7946C17.1476 12.1132 17.4773 12.3757 17.8349 12.4703C18.1628 12.557 18.5357 12.5149 18.8686 12.4729L18.869 15.0363C18.6196 15.0343 17.6318 14.9653 17.4831 15.108C17.3075 15.2766 17.3739 15.9129 17.382 16.1593C17.3963 16.5962 17.6065 17.0024 17.924 17.2966C18.3561 17.6972 18.9129 17.8736 19.4975 17.8467C20.0754 17.8201 20.5946 17.4965 20.9643 17.0693C21.3056 16.6749 21.4816 16.0618 21.4347 15.5462C21.4192 15.3751 21.3522 15.243 21.2133 15.1374C20.9569 14.9423 20.0328 15.0356 19.6856 15.0402L19.6866 13.1606L19.6868 12.6864C19.6868 12.6235 19.6773 12.5489 19.7024 12.4913L25.2915 12.4856L25.3001 12.5153C25.3666 12.7397 25.4595 12.9691 25.5862 13.1665C25.6353 13.2429 25.6396 13.3081 25.6417 13.3959L25.6408 15.937L25.6383 21.0195L25.6437 24.0674C25.6421 24.4714 25.6759 24.9143 25.6386 25.3142C25.6313 25.3931 25.5371 25.5043 25.4937 25.5693L25.0252 26.2695L23.5979 28.4832C23.3369 28.888 23.0358 29.2913 22.8143 29.718L21.9639 29.7087L21.9438 21.7335Z" fill="white"/>
</svg>
