<svg width="35" height="32" viewBox="0 0 35 32" fill="none" xmlns="http://www.w3.org/2000/svg">
<path d="M8.82963 31.4162C8.87433 31.3799 8.9157 31.3485 8.97112 31.3302C9.04443 31.306 9.14363 31.317 9.22096 31.3168L9.77103 31.316L12.0259 31.3157L22.4077 31.3169L24.5112 31.3193L25.092 31.3206C25.2173 31.321 25.3563 31.3077 25.4705 31.3651C25.5273 31.4537 25.6094 31.5713 25.5909 31.6829C25.5734 31.7881 25.4892 31.9108 25.3956 31.962C25.332 31.9968 25.2447 31.9871 25.1747 31.9878L21.1256 31.9835L13.7656 31.9814L10.4926 31.9862L9.47163 31.9892C9.3331 31.9894 9.14742 32.013 9.0191 31.9641C8.92097 31.9268 8.83624 31.8531 8.79445 31.7552C8.74767 31.6456 8.78775 31.52 8.82963 31.4162Z" fill="#192D6C"/>
<path d="M6.63535 31.4154C6.68287 31.5228 6.71759 31.6286 6.68195 31.7458C6.65449 31.8361 6.60059 31.8976 6.51734 31.9407C6.46761 31.9665 6.41269 31.9797 6.35704 31.9837C6.14894 31.9988 5.93043 31.9866 5.72127 31.9868L4.52222 31.9874C3.77163 31.9873 3.00242 32.0209 2.25377 31.9787C2.03435 31.9663 1.81178 31.9316 1.60326 31.8605C1.01524 31.6598 0.529383 31.1841 0.259896 30.6311C-0.0573397 29.9802 -0.0774006 29.2819 0.162826 28.6048C0.427644 27.8585 0.993472 27.4024 1.68628 27.0714L1.683 21.0821L1.68082 8.841L1.68096 3.90293L1.68221 2.41951C1.68263 2.1496 1.66372 1.86278 1.69622 1.59556L1.70186 1.55146C1.71693 1.42624 1.74327 1.31401 1.78774 1.19628C1.9548 0.754145 2.29764 0.356665 2.73778 0.170567C2.97126 0.0718323 3.23002 0.0171026 3.48324 0.00961426L5.30678 0.00249614L8.59997 0.00101637L18.387 0L26.6415 0.00383625L29.364 0.00637895L30.7878 0.0110933C31.0131 0.0204306 31.2388 0.0533886 31.4494 0.136546C31.9733 0.343398 32.387 0.828937 32.5209 1.37507C32.5884 1.65001 32.574 1.93309 32.5744 2.21386L32.5736 3.30364L32.5724 6.87694L32.5738 22.4825L32.5749 25.6662L32.5764 26.4704C32.5769 26.5891 32.563 26.7405 32.591 26.8545C32.6534 27.1093 32.915 27.2287 33.1069 27.3716C33.2362 27.468 33.3584 27.5766 33.4711 27.6917C33.7207 27.9468 33.9155 28.2363 34.0543 28.565C34.3156 29.1838 34.279 29.9481 34.0273 30.5625C33.8009 31.1154 33.3504 31.5824 32.7967 31.8116C32.5848 31.8992 32.3536 31.9494 32.1252 31.9671C31.7996 31.9923 31.4626 31.9771 31.1359 31.9773L29.4158 31.9779L28.4524 31.9796C28.2609 31.9815 27.9852 32.0249 27.8086 31.9459C27.7187 31.9057 27.6304 31.8358 27.6007 31.7383C27.5614 31.6096 27.6142 31.5115 27.6771 31.4027L27.695 31.3723C27.9248 31.2729 28.3192 31.3213 28.5705 31.321L31.0413 31.3216L31.7368 31.3225C31.8792 31.3226 32.033 31.3325 32.173 31.3047C32.4598 31.2475 32.7277 31.1185 32.9504 30.9286C33.3144 30.6185 33.5386 30.1491 33.5705 29.6728C33.6107 29.0746 33.3665 28.4717 32.9055 28.0824C32.7117 27.9188 32.5156 27.8164 32.3444 27.6197L31.9967 27.1537C31.9534 27.0211 31.9151 26.8972 31.9032 26.757C31.8833 26.5232 31.8957 26.2808 31.8961 26.0463L31.8982 24.7632L31.9007 20.5068L31.894 5.88682L31.8929 2.80867L31.8922 1.99841C31.8918 1.8602 31.9058 1.70114 31.8752 1.56676C31.8027 1.2481 31.6036 0.964835 31.3067 0.817565C31.142 0.735887 30.9611 0.703207 30.7786 0.698954L28.0953 0.696135L22.8869 0.695857L8.38738 0.691651L4.86026 0.689386L3.83648 0.68481C3.63592 0.683469 3.39541 0.654209 3.20331 0.711065L3.16097 0.723314C2.88718 0.803837 2.61922 0.987901 2.48078 1.24287C2.41445 1.365 2.36522 1.49308 2.35389 1.63236C2.33249 1.89616 2.34858 2.17184 2.34881 2.43666L2.35061 3.94883L2.36513 8.863L2.35204 20.9486L2.35579 25.459L2.35223 27.6137C1.79907 27.7193 1.31565 27.9712 0.992317 28.449C0.6981 28.8838 0.606392 29.3689 0.709194 29.8816C0.804924 30.3592 1.09008 30.7729 1.4956 31.0417C1.70944 31.1835 1.92327 31.2662 2.17741 31.3023L2.213 31.3076C2.56079 31.3544 2.95342 31.3206 3.3056 31.3207L5.56698 31.3191L6.18222 31.3193C6.27647 31.3196 6.38551 31.3092 6.47824 31.3253C6.54235 31.3364 6.58728 31.3746 6.63535 31.4154Z" fill="#192D6C"/>
<path d="M31.9941 27.1523L32.3418 27.6183C32.513 27.815 32.7092 27.9174 32.9029 28.081C33.3639 28.4703 33.6081 29.0732 33.568 29.6714C33.536 30.1477 33.3118 30.6171 32.9479 30.9272C32.7251 31.1171 32.4572 31.2461 32.1704 31.3033C32.0304 31.3311 31.8767 31.3212 31.7343 31.3211L31.0387 31.3202L28.5679 31.3196C28.3166 31.32 27.9222 31.2715 27.6924 31.3709L25.4691 31.3651C25.3549 31.3077 25.216 31.321 25.0907 31.3206L24.5098 31.3193L22.4063 31.3169L12.0246 31.3157L9.76968 31.316L9.21961 31.3168C9.14228 31.3169 9.04309 31.3059 8.96977 31.3302C8.91435 31.3485 8.87298 31.3799 8.82828 31.4161L6.63278 31.414C6.5847 31.3732 6.53977 31.335 6.47566 31.3239C6.38294 31.3078 6.27389 31.3182 6.17964 31.3179L5.5644 31.3177L3.30303 31.3194C2.95084 31.3192 2.55822 31.353 2.21043 31.3062L2.17483 31.3009C1.92069 31.2648 1.70686 31.1821 1.49303 31.0403C1.08751 30.7716 0.802349 30.3578 0.706619 29.8802C0.603816 29.3675 0.695525 28.8824 0.989741 28.4476C1.31308 27.9698 1.79649 27.7179 2.34965 27.6123C2.38654 28.0411 2.44132 28.2957 2.78827 28.5838C2.911 28.6856 3.05702 28.7573 3.21488 28.78L3.24973 28.7853C3.4704 28.8158 3.71137 28.797 3.93509 28.7968L5.18818 28.7939L9.29681 28.7944L24.4717 28.8021L28.8825 28.8055C29.5629 28.8056 30.2646 28.8453 30.9428 28.8078C31.053 28.8017 31.146 28.7905 31.2466 28.7414C31.5652 28.586 31.7829 28.3899 31.9078 28.048L31.9713 27.8308L31.9941 27.1523Z" fill="#FFCC00"/>
<path d="M2.35319 27.6133L2.35675 25.4587L2.353 20.9483L2.36609 8.86269L2.35157 3.94851L2.34977 2.43634C2.34954 2.17152 2.33345 1.89584 2.35485 1.63204C2.36618 1.49277 2.41541 1.36468 2.48174 1.24255C2.62018 0.987583 2.88814 0.803518 3.16192 0.722996L3.20427 0.710747C3.39637 0.653891 3.63688 0.683151 3.83744 0.684492L4.86121 0.689068L8.38834 0.691333L22.8878 0.695539L28.0963 0.695816L30.7795 0.698636C30.962 0.702889 31.1429 0.735569 31.3077 0.817247C31.6046 0.964517 31.8037 1.24778 31.8761 1.56645C31.9067 1.70082 31.8928 1.85988 31.8932 1.99809L31.8938 2.80835L31.895 5.8865L31.9016 20.5065L31.8991 24.7628L31.8971 26.0459C31.8966 26.2805 31.8843 26.5229 31.9042 26.7567C31.9161 26.8969 31.9543 27.0208 31.9976 27.1534L31.9749 27.8318L31.9114 28.0491C31.7864 28.391 31.5687 28.5871 31.2502 28.7425C31.1495 28.7916 31.0565 28.8028 30.9463 28.8088C30.2681 28.8463 29.5664 28.8067 28.886 28.8066L24.4752 28.8032L9.30034 28.7954L5.19172 28.7949L3.93863 28.7978C3.7149 28.7981 3.47394 28.8168 3.25326 28.7864L3.21841 28.7811C3.06056 28.7584 2.91453 28.6867 2.79181 28.5848C2.44485 28.2968 2.39008 28.0422 2.35319 27.6133Z" fill="white"/>
<path d="M19.1231 11.7024C19.1123 11.3331 19.0872 10.9947 19.3638 10.7075C19.5603 10.5035 19.8226 10.4387 20.0981 10.4375C20.3098 10.4366 20.5085 10.5095 20.6616 10.6574C20.7753 10.7672 20.8323 10.9057 20.8309 11.0625L20.8117 11.6706C20.2493 11.5175 19.7477 11.5526 19.2381 11.8363L19.1231 11.7024Z" fill="#FFCC00"/>
<path d="M6.46216 13.8143L6.45555 11.7375L6.45361 7.00398L6.44284 4.4636C6.44261 4.07619 6.41594 3.66905 6.45426 3.2847C6.46803 3.14635 6.51624 3.03227 6.60666 2.92628C6.72374 2.78908 6.92163 2.68827 7.10306 2.68374C7.27709 2.67935 7.4692 2.77503 7.59035 2.89461C7.7006 3.00342 7.77488 3.13442 7.79536 3.28909C7.8358 3.59445 7.80345 3.9464 7.80359 4.25619V6.35167L7.79693 13.6453C7.31393 13.5333 6.89741 13.5742 6.46216 13.8143Z" fill="#FFCC00"/>
<path d="M23.963 1.92453L24.0083 1.92116C24.2458 1.90715 24.4442 1.93429 24.6273 2.10305C24.8011 2.26322 24.8918 2.47044 24.9003 2.70452C24.9068 2.88267 24.8507 3.06632 24.7284 3.19722L22.3682 5.54887L21.0957 6.82905C20.9129 7.00942 20.7336 7.22131 20.5311 7.37856C20.3972 7.48247 20.2587 7.53568 20.0892 7.53803C19.9209 7.54039 19.7712 7.50665 19.6276 7.4154C19.3316 7.22736 19.0744 6.91368 18.8212 6.66897L17.494 5.40451L16.8158 4.75423C16.6685 4.60461 16.5977 4.42031 16.6017 4.21041C16.6055 4.01405 16.7029 3.81011 16.8489 3.67948C17.0316 3.51608 17.2315 3.44799 17.4741 3.46541C17.6277 3.47642 17.7758 3.56849 17.8952 3.65928C18.1651 3.86447 18.3973 4.1401 18.6418 4.37663C19.0984 4.81835 19.5651 5.24486 19.9926 5.71551L22.7123 3.02273C23.0299 2.71016 23.3338 2.34087 23.6812 2.06413C23.7672 1.99567 23.8608 1.96073 23.963 1.92453Z" fill="#FFCC00"/>
<path d="M20.8123 11.6706C20.8865 11.689 20.9258 11.7089 21 11.6865L25.1432 6.77241C24.8873 6.24402 24.8016 5.7871 25.0005 5.21651C25.1566 4.76897 25.4914 4.41586 25.9177 4.214C26.3758 3.99716 26.8932 3.97618 27.3693 4.1467C27.8038 4.30233 28.1993 4.6584 28.3948 5.07645C28.4829 5.26491 28.5389 5.4712 28.5618 5.67736C28.6126 6.13655 28.4946 6.61095 28.2061 6.97709C27.9242 7.33477 27.479 7.61411 27.0224 7.66957C26.5779 7.72356 26.1081 7.67517 25.7445 7.39713C25.7308 7.38659 25.621 7.30145 25.6121 7.30514C25.5798 7.31841 25.4869 7.44506 25.4591 7.47622L24.672 8.40273L22.4421 11.0347C22.1361 11.3892 21.849 11.773 21.5184 12.1036C21.8697 12.4769 22.0905 12.9244 22.0771 13.4489C22.0645 13.9443 21.8056 14.4489 21.4442 14.7795C21.0846 15.1083 20.5596 15.2506 20.0806 15.2244C19.5628 15.196 19.1587 14.9717 18.8172 14.5875C18.496 14.226 18.3276 13.7912 18.3559 13.3049C18.3782 12.9237 18.5177 12.6147 18.7266 12.2999L15.3017 8.89608C14.8751 9.2038 14.423 9.37233 13.8869 9.27961L13.7678 9.25386L13.7275 9.24489C13.5362 9.20075 13.3532 9.11306 13.1862 9.01118L8.58523 14.0122C8.99242 14.4344 9.23403 14.8753 9.22515 15.4769C9.21753 15.9929 8.97809 16.4776 8.60612 16.8269C8.23235 17.178 7.71811 17.3189 7.21556 17.2917L7.06533 17.2721L7.02368 17.2646C6.57799 17.1808 6.13415 16.8818 5.88158 16.5065C5.582 16.0613 5.4461 15.5853 5.55468 15.0488C5.66091 14.5244 5.97038 14.1276 6.41792 13.8427L6.46312 13.815C6.89837 13.5749 7.3149 13.5341 7.79789 13.646C7.84606 13.6583 7.89478 13.6743 7.94498 13.6711C7.97849 13.669 7.99679 13.6412 8.02051 13.6193C8.19741 13.4565 8.35106 13.2621 8.51487 13.0859L9.49066 12.0398L12.6785 8.56073C12.6838 8.50863 12.6003 8.40509 12.571 8.35517C12.5105 8.25218 12.4624 8.14161 12.4239 8.02864C12.2668 7.56733 12.3085 7.02174 12.5295 6.58664C12.7543 6.14413 13.1612 5.82366 13.6312 5.67736C14.1041 5.53019 14.6243 5.58131 15.0604 5.81428C15.5107 6.05483 15.8461 6.47404 15.9879 6.96332C16.1384 7.48278 16.0253 7.93925 15.7755 8.40435L19.1237 11.7023L19.2388 11.8363C19.7483 11.5526 20.2499 11.5175 20.8123 11.6706Z" fill="#192D6C"/>
<path d="M26.6519 4.70508C26.9218 4.71164 27.1432 4.74992 27.3728 4.89982C27.6413 5.07515 27.8434 5.36373 27.9025 5.68073C27.9561 5.96769 27.8855 6.2546 27.7233 6.49543C27.5161 6.80305 27.2421 6.93798 26.8864 7.00852C26.5507 7.02964 26.2563 6.97339 25.9877 6.76182C25.7494 6.57401 25.5886 6.25252 25.5593 5.95197C25.5315 5.66617 25.63 5.34547 25.8135 5.12318C26.0381 4.85105 26.3044 4.73596 26.6519 4.70508Z" fill="#FFCC00"/>
<path d="M20.0715 12.2361C20.3639 12.2165 20.6426 12.2749 20.8911 12.4351C21.1234 12.5848 21.3292 12.8683 21.382 13.1414C21.4412 13.4472 21.3817 13.7928 21.2033 14.0508C20.9911 14.3575 20.6968 14.4992 20.3364 14.5606C20.0413 14.5689 19.7988 14.5259 19.5496 14.3595C19.2929 14.188 19.0952 13.8876 19.0414 13.5819C18.9857 13.2657 19.0606 12.975 19.249 12.7167C19.4533 12.4367 19.7308 12.2849 20.0715 12.2361Z" fill="#FFCC00"/>
<path d="M7.20938 14.2678C7.50651 14.2346 7.78251 14.2824 8.03957 14.4428C8.29592 14.6029 8.48692 14.893 8.54364 15.187C8.6035 15.4972 8.5392 15.8304 8.3629 16.0931C8.16987 16.3809 7.89511 16.5268 7.56313 16.595C7.40921 16.6034 7.24775 16.6074 7.09761 16.5673C6.78689 16.4843 6.5205 16.2871 6.35668 16.0097C6.20165 15.7471 6.13412 15.4311 6.21797 15.1333L6.22952 15.0943C6.26562 14.9683 6.31471 14.8582 6.38881 14.7502C6.58845 14.4591 6.87204 14.33 7.20938 14.2678Z" fill="#FFCC00"/>
<path d="M14.1545 6.27539C14.4511 6.28801 14.7033 6.33955 14.9436 6.52417C15.182 6.7074 15.3456 6.98784 15.3868 7.28603L15.3909 7.31816C15.4294 7.59795 15.3553 7.8642 15.1977 8.09884C14.9772 8.42708 14.6675 8.55627 14.2922 8.62718C13.9725 8.6312 13.7024 8.58775 13.4464 8.37664C13.1931 8.16771 13.0105 7.84599 12.9839 7.51461C12.9607 7.22372 13.0551 6.91874 13.2427 6.69497C13.4816 6.40995 13.7986 6.31006 14.1545 6.27539Z" fill="#FFCC00"/>
<path d="M25.3371 10.4986L26.8122 10.4873C27.1778 10.4865 27.5715 10.4579 27.934 10.4975C28.0266 10.5076 28.1226 10.5405 28.2039 10.5853C28.3779 10.6811 28.5768 10.8958 28.6321 11.09C28.6777 11.2504 28.6691 11.423 28.6699 11.5881L28.6707 12.3082L28.6739 14.4013L28.6745 24.2123L28.6724 26.011C28.6722 26.2204 28.6298 26.5422 28.6831 26.7398C28.907 26.7392 29.5863 26.6898 29.7481 26.7848C29.8304 26.8332 29.8859 26.8986 29.9094 26.9913C29.9318 27.0794 29.9246 27.1643 29.8726 27.2413C29.8208 27.3182 29.7284 27.3823 29.6364 27.3987C29.4631 27.4294 29.2541 27.4041 29.0765 27.4026L27.8476 27.3949L22.9099 27.3872L5.04356 27.4045C4.91131 27.4053 4.70414 27.4346 4.59611 27.344C4.52197 27.2818 4.48055 27.1911 4.47519 27.0951C4.46992 27.0008 4.50066 26.9199 4.56417 26.8504C4.60702 26.8035 4.6672 26.7596 4.72808 26.7396C4.8148 26.7111 4.93623 26.7281 5.02886 26.7301L5.54773 26.7272L5.54736 22.7076L5.54537 21.6719C5.545 21.4737 5.52924 21.2627 5.55734 21.0667C5.58203 20.8946 5.65483 20.714 5.77238 20.5837C5.91438 20.4264 6.13523 20.3121 6.3487 20.3014L7.77147 20.3007C8.11501 20.3004 8.53251 20.2562 8.86791 20.317C9.03714 20.3477 9.19559 20.4333 9.31859 20.5527C9.43702 20.6677 9.53039 20.8469 9.55674 21.0102C9.58623 21.193 9.56714 21.3997 9.56723 21.586L9.56631 22.7109L9.56257 26.7246L11.8927 26.721L11.8911 23.1458L11.8971 16.4717L11.8914 14.5903C11.8903 14.3103 11.8556 13.9824 11.8972 13.7079C11.9213 13.5489 11.9839 13.4061 12.092 13.2866C12.2719 13.0879 12.4758 13.0105 12.7402 13.0031L14.3504 12.9963C14.6513 12.9957 14.998 12.9626 15.2931 13.0152C15.4553 13.0441 15.595 13.1009 15.7129 13.2187C15.8508 13.3564 15.951 13.5486 15.9698 13.7442C16.0114 14.1771 15.9732 14.651 15.9734 15.0877L15.9757 17.964L15.9736 26.7269L18.2912 26.7377L18.2908 20.9465L18.2828 19.29C18.2811 19.0398 18.2533 18.7566 18.2853 18.5107C18.3057 18.3536 18.3823 18.19 18.4875 18.072C18.6427 17.8979 18.864 17.8045 19.095 17.7985L20.7199 17.7978C21.0066 17.7982 21.3857 17.7536 21.6597 17.8224C21.8142 17.8612 21.9557 17.9471 22.0674 18.0593C22.1855 18.1779 22.2708 18.3297 22.2983 18.4962C22.3376 18.7341 22.3086 19.0164 22.3078 19.2588L22.3034 20.9073L22.292 26.7255L24.682 26.7281L24.6839 16.2117L24.6924 13.0864C24.6922 12.4891 24.6642 11.8769 24.6992 11.2811C24.7065 11.1584 24.7392 11.0321 24.7972 10.9229C24.9196 10.6928 25.0947 10.5772 25.3371 10.4986Z" fill="#192D6C"/>
<path d="M6.38049 20.9709L8.04349 20.9656L8.52806 20.9663C8.6083 20.9665 8.70168 20.955 8.77471 20.9932C8.83702 21.0258 8.88089 21.0927 8.89064 21.161C8.91019 21.2978 8.8942 21.461 8.89378 21.6001L8.89203 22.4272L8.8869 25.5269C8.88703 25.7089 8.92591 26.6373 8.86203 26.7348L8.73477 26.7403L6.21875 26.7431L6.23285 21.0801C6.27186 21.0151 6.31434 20.9997 6.38049 20.9709Z" fill="#FFCC00"/>
<path d="M20.9871 18.4588C21.1979 18.4525 21.4732 18.3968 21.6379 18.545C21.6959 18.7611 21.6578 19.049 21.657 19.2767L21.6533 20.7542L21.6619 26.7342L19.604 26.7381L18.9408 26.7396L18.9447 20.8178L18.9428 19.016C18.9428 18.919 18.9125 18.6093 18.9518 18.5409C18.9579 18.5304 18.9683 18.5229 18.9775 18.5148C19.0069 18.4887 19.0288 18.4743 19.0678 18.4691C19.2636 18.4426 19.4861 18.4636 19.6849 18.4631L20.9871 18.4588Z" fill="#FFCC00"/>
<path d="M12.6624 13.6692L14.1863 13.6717L14.8551 13.6711C14.9517 13.6712 15.0976 13.6582 15.1892 13.6842C15.2152 13.6916 15.2566 13.7264 15.281 13.7417C15.3144 13.7983 15.3127 13.8397 15.3125 13.902L15.3023 23.5098L15.302 25.7864L15.3018 26.3832C15.3018 26.488 15.3136 26.6056 15.2876 26.7076L15.2066 26.7167L12.5547 26.7152L12.5547 13.9521C12.5597 13.8106 12.5584 13.7658 12.6624 13.6692Z" fill="#FFCC00"/>
<path d="M25.4475 11.1465L27.8429 11.1653C27.9001 11.1729 27.9338 11.1941 27.9692 11.2399C28.0015 11.2816 28.0042 11.3272 28.0049 11.3777L28.01 16.0451L28.0208 21.6403L28.0204 24.9975C28.0207 25.5635 28.0584 26.1607 28.01 26.7227L27.9614 26.7463L25.3496 26.751L25.3557 15.78L25.368 12.8265C25.3684 12.3247 25.3357 11.7986 25.3716 11.2993C25.3761 11.2358 25.4096 11.1941 25.4475 11.1465Z" fill="#FFCC00"/>
</svg>
