<svg width="32" height="36" viewBox="0 0 32 36" fill="none" xmlns="http://www.w3.org/2000/svg">
<path d="M2.95508 6.58008H24.6394V33.9708H2.95508V6.58008Z" fill="white"/>
<path d="M22.363 7.11353L23.4695 7.10934C23.6605 7.10885 23.8766 7.08781 24.0638 7.12886C24.2066 7.16016 24.3212 7.22472 24.4256 7.32649C24.5461 7.44405 24.6263 7.57651 24.673 7.73802L24.6839 7.77507C24.7326 7.95674 24.712 8.16386 24.7111 8.35101L24.7098 9.22316C24.6699 9.2113 24.3477 9.13868 24.3462 9.13618C24.3392 9.12437 24.347 9.00351 24.3471 8.98251L24.3499 8.33684C24.3504 8.11215 24.3866 7.81381 24.2179 7.63772C24.1511 7.56803 24.0297 7.51151 23.937 7.49122C23.7619 7.45288 23.5621 7.47116 23.3827 7.47036L22.3555 7.46902L22.363 7.11353Z" fill="#192D6C"/>
<path d="M5.3389 29.5183C5.49448 29.7267 5.70914 29.9104 5.89696 30.0896C6.07787 30.2623 6.26106 30.4567 6.46002 30.6084C6.58619 30.7047 6.72176 30.7487 6.88101 30.7189C6.94694 30.7066 7.01448 30.6704 7.06691 30.6295C7.33952 30.4169 7.58922 30.128 7.84111 29.8865L8.68405 29.0854C8.84784 28.9296 9.04128 28.776 9.16236 28.584C9.21581 28.7435 9.28661 28.9067 9.20436 29.07C9.12202 29.2335 8.95996 29.3679 8.83117 29.4953L8.1168 30.1955C7.84681 30.462 7.58735 30.7538 7.30194 31.0028C7.22401 31.0709 7.12955 31.1441 7.0291 31.1746C6.88711 31.2176 6.7367 31.1937 6.61205 31.1178C6.38446 30.9792 6.17555 30.7143 5.98136 30.5258L5.47166 30.0502C5.39685 29.9801 5.29271 29.892 5.27095 29.7881C5.25687 29.7208 5.27399 29.6415 5.28455 29.5744L5.3389 29.5183Z" fill="#FFCC00"/>
<path d="M5.29175 26.0158C5.43909 26.2201 5.6554 26.3935 5.83827 26.5664C6.02177 26.7397 6.20402 26.9337 6.40303 27.0888C6.51631 27.1772 6.62277 27.2402 6.771 27.2164C6.87938 27.199 6.96346 27.1469 7.04816 27.0806C7.42211 26.7879 7.75896 26.4032 8.10014 26.0692C8.45376 25.723 8.8788 25.3882 9.16787 24.9883C9.24263 25.159 9.30036 25.3414 9.22751 25.526C9.16916 25.6739 8.97113 25.8273 8.85588 25.9365L8.18552 26.5766C7.87287 26.8846 7.57181 27.2305 7.23915 27.5133C7.16323 27.5779 7.08173 27.6297 6.98753 27.6631C6.8677 27.7056 6.71068 27.685 6.59731 27.6293C6.45501 27.5593 5.26643 26.4513 5.23544 26.3164C5.21199 26.2145 5.23642 26.1018 5.29175 26.0158Z" fill="#FFCC00"/>
<path d="M5.29367 26.0159L5.29277 26.0063C5.2745 25.8407 5.28243 25.7 5.39201 25.5656C5.48452 25.4523 5.61421 25.4028 5.75869 25.3992C5.82534 25.3975 5.91486 25.4046 5.97643 25.4329C6.0577 25.4704 6.14775 25.5783 6.21311 25.6416L6.7056 26.1212L8.38252 24.4826C8.49799 24.3879 8.64176 24.3466 8.79084 24.3628C8.90916 24.3756 9.00817 24.4287 9.08147 24.5223C9.19604 24.6687 9.18721 24.8145 9.16978 24.9884C8.88072 25.3883 8.45568 25.7231 8.10206 26.0693C7.76088 26.4033 7.42403 26.788 7.05008 27.0807C6.96537 27.147 6.88129 27.1991 6.77292 27.2165C6.62468 27.2403 6.51822 27.1773 6.40494 27.0889C6.20593 26.9338 6.02368 26.7398 5.84019 26.5665C5.65732 26.3936 5.44101 26.2202 5.29367 26.0159Z" fill="#192D6C"/>
<path d="M5.33792 29.5153C5.32218 29.4563 5.3081 29.3969 5.30373 29.3358C5.29561 29.2221 5.33757 29.0877 5.41549 29.0034C5.50363 28.9083 5.61789 28.8497 5.74789 28.8443C5.99701 28.8339 6.16009 29.0475 6.32611 29.2046L6.78008 29.6243L8.01297 28.4275C8.16896 28.2765 8.35759 28.0466 8.54777 27.9453C8.64139 27.8953 8.78628 27.8844 8.88632 27.917C9.00995 27.9574 9.12871 28.0732 9.17926 28.192C9.22946 28.31 9.20459 28.4655 9.16139 28.5809C9.0403 28.773 8.84687 28.9266 8.68308 29.0824L7.84013 29.8835C7.58825 30.125 7.33855 30.4139 7.06594 30.6265C7.01351 30.6673 6.94597 30.7035 6.88003 30.7159C6.72079 30.7457 6.58522 30.7016 6.45905 30.6054C6.26009 30.4536 6.0769 30.2593 5.89599 30.0866C5.70817 29.9074 5.49351 29.7237 5.33792 29.5153Z" fill="#192D6C"/>
<path d="M13.7553 26.007L15.5151 26.0088C15.7717 26.0096 16.0728 25.9806 16.3241 26.0181C16.4036 26.0299 16.48 26.0653 16.5435 26.1146C16.6562 26.2021 16.7235 26.3426 16.7298 26.4843C16.7349 26.5995 16.6614 26.748 16.584 26.8301C16.5205 26.8974 16.4242 26.9589 16.3309 26.9711C16.0516 27.0078 15.7301 26.9766 15.4445 26.9769L13.4486 26.9768L11.6777 26.9772C11.4181 26.977 11.1171 27.0066 10.8618 26.9676C10.762 26.9523 10.6716 26.9117 10.5964 26.8439C10.5068 26.7629 10.4497 26.6287 10.4473 26.5091C10.4448 26.3785 10.503 26.2312 10.5962 26.1389C10.6641 26.0717 10.7607 26.0271 10.8554 26.0141C11.1336 25.9758 11.4687 26.0106 11.7519 26.0101L13.7553 26.007Z" fill="#192D6C"/>
<path d="M12.8661 18.4964C13.1065 18.4915 13.4467 18.4437 13.64 18.6098C13.7352 18.6916 13.7934 18.8047 13.7997 18.9297C13.8074 19.0834 13.7662 19.2077 13.657 19.3192C13.58 19.3978 13.4735 19.4491 13.3637 19.46C13.126 19.4836 12.868 19.4654 12.6282 19.4659L11.2319 19.4761L6.18485 19.4804C6.01932 19.4831 5.8278 19.5014 5.66575 19.4701C5.53326 19.4446 5.41427 19.3569 5.34468 19.2418C5.27669 19.1294 5.26216 18.988 5.29907 18.863C5.33714 18.7339 5.43219 18.6204 5.55216 18.5586L5.57708 18.5466C5.61493 18.5278 5.64578 18.5155 5.68853 18.5106C5.9056 18.4859 6.14972 18.5092 6.37 18.5092L7.89044 18.5084L12.8661 18.4964Z" fill="#192D6C"/>
<path d="M5.63359 21.8759C5.98868 21.8501 6.36164 21.8718 6.71878 21.8719L8.89435 21.8723L12.2926 21.8731L14.0602 21.8744C14.1314 21.8764 14.2145 21.8849 14.2815 21.9102C14.4077 21.9578 14.5032 22.0776 14.5518 22.2004C14.5952 22.3103 14.576 22.4572 14.5254 22.5623C14.4539 22.7105 14.3425 22.7703 14.194 22.8236C13.9304 22.8445 13.6569 22.8291 13.3917 22.8289L11.9363 22.8296L7.30079 22.8372L6.24916 22.8396C6.05425 22.841 5.77455 22.8765 5.58883 22.8162C5.46931 22.7773 5.37796 22.6831 5.32107 22.574C5.2694 22.4749 5.25371 22.2953 5.29517 22.1892C5.35678 22.0314 5.48562 21.9429 5.63359 21.8759Z" fill="#192D6C"/>
<path d="M5.70545 15.1944L11.2189 15.193L13.1415 15.1883C13.4497 15.1876 13.7701 15.1692 14.0771 15.1884C14.1429 15.1925 14.2051 15.2113 14.2645 15.2395C14.3823 15.2954 14.5045 15.417 14.5402 15.5452C14.5732 15.6636 14.5576 15.8121 14.4956 15.9191C14.4084 16.0696 14.2909 16.1246 14.1285 16.1673L12.3781 16.1669L8.93117 16.1591L6.76354 16.1615C6.4331 16.1619 6.08167 16.1868 5.75324 16.1589C5.64723 16.1499 5.56301 16.1218 5.47309 16.065C5.38045 16.0065 5.29918 15.8866 5.28188 15.7774C5.26213 15.6528 5.27395 15.5029 5.3504 15.3985C5.44072 15.2752 5.56038 15.2225 5.70545 15.1944Z" fill="#192D6C"/>
<path d="M22.2878 5.68404L22.0156 4.78221L24.0841 4.77543C24.6209 4.77516 25.239 4.71132 25.7612 4.84333C26.1648 4.94533 26.5507 5.15985 26.8481 5.45008C27.2384 5.83085 27.4791 6.31602 27.5529 6.85541C27.5807 7.05928 27.5737 7.27149 27.5745 7.47692L27.5689 11.1043C27.2612 11.1031 26.9743 11.0972 26.6741 11.1746L26.67 8.42387L26.6726 7.53898C26.673 7.35682 26.6839 7.16877 26.6621 6.98804L26.6569 6.94886C26.628 6.72185 26.5464 6.53207 26.4267 6.33823C26.2076 5.98345 25.8601 5.80891 25.4719 5.70678C25.2572 5.65029 25.0327 5.67027 24.8123 5.67116L23.9561 5.66995C23.4103 5.66902 22.8297 5.62751 22.2878 5.68404Z" fill="#192D6C"/>
<path d="M5.73778 11.8708L7.58683 11.8689L11.2098 11.868L13.8083 11.8634L14.4726 11.8639C14.5841 11.8642 14.7213 11.8478 14.8241 11.8939L14.8518 11.9077C14.9144 11.9383 14.9717 11.9694 15.0203 12.0205C15.1241 12.1296 15.1586 12.2692 15.1463 12.4167C15.1349 12.553 15.0652 12.67 14.9574 12.7536C14.8743 12.818 14.7851 12.8384 14.6837 12.8567L12.3734 12.8421L8.10736 12.8377L6.54639 12.84C6.27222 12.8419 5.98587 12.8614 5.71268 12.8439C5.64643 12.8396 5.58103 12.8202 5.52205 12.7896C5.40734 12.73 5.31024 12.6062 5.27859 12.4813C5.24288 12.3404 5.26339 12.2072 5.34453 12.0861C5.44631 11.9342 5.5689 11.8998 5.73778 11.8708Z" fill="#192D6C"/>
<path d="M10.8992 29.3432L12.9519 29.3392L16.8523 29.3378L19.7028 29.337C20.1707 29.3368 20.6492 29.3129 21.1156 29.3368C21.1766 29.3399 21.23 29.3571 21.2832 29.3869C21.3904 29.4469 21.4711 29.5509 21.5033 29.6687C21.5365 29.7904 21.5214 29.9304 21.4551 30.0389C21.3716 30.1757 21.2595 30.2295 21.1098 30.2693L13.594 30.2705L10.9649 30.2688C10.8815 30.2657 10.7882 30.2579 10.7143 30.2158C10.5955 30.1481 10.5017 30.0157 10.4691 29.8835C10.4423 29.775 10.4704 29.6502 10.5342 29.5595C10.6312 29.4216 10.7397 29.377 10.8992 29.3432Z" fill="#192D6C"/>
<path d="M22.291 5.68395C22.8329 5.62742 23.4135 5.66892 23.9593 5.66986L24.8155 5.67106C25.0359 5.67017 25.2604 5.6502 25.4751 5.70668C25.8633 5.80882 26.2108 5.98335 26.4298 6.33813C26.5496 6.53197 26.6312 6.72175 26.6601 6.94876L26.6653 6.98795C26.687 7.16868 26.6762 7.35672 26.6758 7.53888L26.6732 8.42378L26.6773 11.1745C26.3489 11.2748 26.0778 11.4326 25.8053 11.6408C25.8112 11.1306 25.8733 10.5943 25.6535 10.1185C25.4704 9.72189 25.1198 9.37991 24.7105 9.22521L24.7118 8.35307C24.7127 8.16592 24.7333 7.95879 24.6845 7.77713L24.6736 7.74008C24.6269 7.57856 24.5468 7.44611 24.4262 7.32855C24.3219 7.22677 24.2072 7.16222 24.0644 7.13092C23.8772 7.08986 23.6612 7.1109 23.4701 7.11139L22.3636 7.11558C22.417 6.65934 22.3699 6.13511 22.291 5.68395Z" fill="#FFCC00"/>
<path d="M24.6655 28.8995L24.6657 31.3259L24.665 32.1385C24.6648 32.3052 24.6732 32.4775 24.6482 32.6427C24.6258 32.7906 24.5624 32.9373 24.4657 33.0516C24.3344 33.2067 24.1552 33.2856 23.9543 33.2976C23.5404 33.3224 23.1167 33.3053 22.7017 33.3067L20.2715 33.3134L12.9222 33.3201L6.84955 33.3112L4.95047 33.3127C4.6031 33.3135 4.24489 33.3307 3.89858 33.3063C3.75004 33.2958 3.60666 33.2414 3.49454 33.1426C3.34176 33.0078 3.18038 32.7913 3.17142 32.581L3.17097 31.3593L3.17204 28.8263L3.16767 19.5351L3.16455 11.7172L3.16098 9.30018C3.15956 8.88018 3.13852 8.44908 3.16 8.02997C3.17057 7.82432 3.27792 7.61331 3.4196 7.46784C3.73938 7.13955 4.20918 7.19166 4.62793 7.18952L5.47613 7.18359L5.47805 7.51635L4.46512 7.51671C4.3044 7.51728 4.12055 7.49972 3.96398 7.53699C3.85101 7.56392 3.7417 7.62535 3.65909 7.70693C3.56043 7.80439 3.48571 7.93791 3.4739 8.0778C3.44666 8.40048 3.47207 8.74987 3.47283 9.07544L3.47979 11.1989L3.48656 17.4137L3.48754 27.6542L3.48777 30.8715L3.48973 32.5428C3.49347 32.678 3.5455 32.7849 3.64679 32.875C3.72356 32.9434 3.83149 32.9744 3.93255 32.9778L5.38447 32.9758L8.00799 32.9762L16.9416 32.9811L21.7904 32.9799L23.2364 32.9784C23.4689 32.9781 23.7255 32.9988 23.9549 32.9708C24.0686 32.9569 24.1742 32.8879 24.2375 32.7929C24.2758 32.7356 24.3031 32.6741 24.3125 32.6056C24.3326 32.4571 24.3169 32.2874 24.3168 32.1366L24.3167 31.1756L24.3419 27.4924C24.3915 27.635 24.4442 27.7786 24.5064 27.9163C24.5893 28.1 24.6646 28.2259 24.6593 28.4325L24.6655 28.8995Z" fill="#192D6C"/>
<path d="M26.6767 31.4746C26.9327 31.5455 27.2801 31.5136 27.5466 31.5097L27.547 32.789C27.5467 33.102 27.5644 33.4287 27.5302 33.7397C27.4757 34.235 27.2512 34.7721 26.9085 35.1371C26.4268 35.6502 25.8016 35.9814 25.0881 35.9968L23.233 35.9953L19.938 35.9916L9.85863 35.9896L4.64802 35.9976L3.1694 35.9975C2.85278 35.9971 2.52275 36.0134 2.20872 35.9706C1.67923 35.8984 1.17675 35.6419 0.795268 35.2704C0.274916 34.7636 0.0106384 34.1021 0.00448619 33.3792L0.010148 24.7115L0.0114411 15.1947L0.00930104 9.59013L0.00546712 7.90639C0.00466465 7.57667 -0.0146392 7.22956 0.0244585 6.90197C0.0862481 6.38403 0.366664 5.86332 0.732498 5.49802C1.09263 5.13852 1.54775 4.92743 2.04109 4.82324C2.19922 4.78989 2.36529 4.79542 2.52618 4.79507L3.25098 4.79511L5.67705 4.79712C5.58552 5.10843 5.51905 5.38697 5.47848 5.70983L3.54071 5.71027C3.08416 5.70992 2.54294 5.65423 2.10203 5.7648C1.81667 5.83635 1.5647 5.98949 1.35824 6.19817C1.1381 6.42063 0.960174 6.74549 0.926471 7.05863C0.891831 7.38073 0.912918 7.72276 0.912651 8.0474L0.91488 9.89208L0.921433 15.614L0.928075 27.3343L0.917911 33.3534C0.924777 33.8471 1.09579 34.2744 1.45222 34.62C1.72309 34.8827 1.99321 35.0007 2.3586 35.0768C2.55204 35.117 2.79737 35.0917 2.99727 35.0915L4.2488 35.0908L9.11257 35.0895L19.8671 35.09L23.3476 35.0912L25.1449 35.0874C25.4183 35.0738 25.6928 34.9741 25.9167 34.8188C26.3005 34.5529 26.5675 34.1815 26.6523 33.7196C26.701 33.4538 26.6778 33.1592 26.6778 32.8891L26.6767 31.4746Z" fill="#192D6C"/>
<path d="M13.6349 0.0142083L13.6817 0.00805605C15.3304 -0.102283 16.9246 0.931423 17.5335 2.45641C17.6083 2.64383 17.661 2.83562 17.7028 3.03289C17.7093 3.06348 17.738 3.26748 17.7501 3.27947C17.7587 3.28812 17.7745 3.27947 17.7868 3.27947L18.5534 3.28072C18.7523 3.28148 18.9506 3.27519 19.1431 3.33515C19.4035 3.4162 19.6481 3.59167 19.845 3.77829C20.5392 4.436 21.0206 5.40658 21.0365 6.37265L21.039 7.50608C21.0391 7.69016 21.0616 7.90691 21.0278 8.08733C21.0102 8.18162 20.9649 8.25367 20.8967 8.32005C20.8256 8.38937 20.7358 8.43712 20.6363 8.4488C20.4236 8.47377 20.1851 8.45286 19.9703 8.45259L18.5829 8.44938L14.1219 8.44813L9.26367 8.44831L7.845 8.44907C7.62103 8.44938 7.37699 8.46886 7.15498 8.44372C7.06907 8.434 6.98218 8.39499 6.91647 8.33873C6.79721 8.23664 6.7623 8.11622 6.75776 7.96304L6.75936 6.68227C6.76074 6.35527 6.743 6.01881 6.7763 5.69337C6.83675 5.102 7.09403 4.53073 7.50369 4.0999C7.93457 3.64673 8.6019 3.31901 9.2284 3.27024C9.5024 3.24889 9.78906 3.27385 10.0655 3.26699C10.1261 2.60175 10.4551 1.94141 10.8751 1.43015C11.5821 0.569646 12.5432 0.125661 13.6349 0.0142083Z" fill="#192D6C"/>
<path d="M13.8066 0.905339L13.949 0.900391C15.2249 0.908727 16.3717 1.77583 16.771 2.97605C16.8172 3.11496 16.8527 3.25704 16.8742 3.40189C16.9091 3.63723 16.887 3.85853 17.0708 4.03699C17.1209 4.08563 17.1927 4.12598 17.2607 4.14207C17.4088 4.17702 17.5826 4.16311 17.7347 4.16338L18.5925 4.16231C18.9226 4.16258 19.0844 4.30733 19.3096 4.53438C19.6687 4.89638 19.9591 5.3409 20.073 5.84436C20.1316 6.10356 20.1267 6.37069 20.127 6.63461L20.1261 7.54683L14.027 7.52378L7.67161 7.53805L7.66822 6.45615C7.66612 5.84088 7.66715 5.28241 8.10324 4.7951C8.37537 4.49105 8.76091 4.24759 9.17217 4.19267C9.60247 4.13521 10.0474 4.21599 10.4786 4.18179C10.6359 4.16931 10.8085 4.07061 10.8799 3.92313C10.9329 3.81364 10.921 3.59693 10.9352 3.46925C10.9961 2.91872 11.2762 2.37714 11.6342 1.96089C12.1997 1.30309 12.9472 0.968065 13.8066 0.905339Z" fill="#FFCC00"/>
<path d="M13.766 2.08564C14.1901 2.06143 14.6059 2.15799 14.9532 2.40948C15.3657 2.70817 15.5992 3.11007 15.6728 3.61263C15.7396 4.06968 15.607 4.57808 15.3253 4.94405C15.0294 5.32848 14.6109 5.56128 14.13 5.62539C13.9672 5.63256 13.7759 5.64233 13.6166 5.60885C13.3307 5.5488 13.0823 5.46958 12.8433 5.29326C12.4733 5.0202 12.1965 4.52468 12.1393 4.07133C12.0806 3.6067 12.2356 3.12826 12.5195 2.7593C12.8252 2.36182 13.2778 2.15318 13.766 2.08564Z" fill="#192D6C"/>
<path d="M13.8472 2.99609C14.0883 3.00871 14.2809 3.04362 14.4752 3.2009C14.6455 3.33874 14.7535 3.55158 14.7736 3.76944C14.7948 3.99975 14.7227 4.22194 14.575 4.40005C14.4421 4.56032 14.2318 4.70008 14.0214 4.72192C13.8042 4.73744 13.5741 4.69803 13.3927 4.56865C13.2083 4.43718 13.0722 4.21191 13.0384 3.98834C13.006 3.77448 13.0609 3.54163 13.1917 3.36821C13.3609 3.14388 13.5728 3.03345 13.8472 2.99609Z" fill="white"/>
<path d="M26.6783 31.4759L26.6795 32.8904C26.6794 33.1605 26.7027 33.4551 26.6539 33.721C26.5692 34.1828 26.3022 34.5542 25.9184 34.8202C25.6944 34.9754 25.42 35.0751 25.1465 35.0888L23.3492 35.0925L19.8688 35.0913L9.11423 35.0908L4.25047 35.0921L2.99894 35.0929C2.79903 35.093 2.5537 35.1183 2.36027 35.0781C1.99488 35.0021 1.72476 34.884 1.45388 34.6214C1.09746 34.2757 0.926443 33.8485 0.919577 33.3547L0.929742 27.3356L0.9231 15.6153L0.916546 9.89341L0.914317 8.04873C0.914584 7.72409 0.893497 7.38206 0.928137 7.05996C0.96184 6.74682 1.13976 6.42196 1.35991 6.1995C1.56636 5.99081 1.81834 5.83768 2.1037 5.76612C2.54461 5.65556 3.08582 5.71124 3.54238 5.7116L5.48015 5.71115L5.47988 7.18305L4.63168 7.18898C4.21293 7.19112 3.74313 7.139 3.42335 7.4673C3.28167 7.61277 3.17432 7.82377 3.16375 8.02942C3.14226 8.44853 3.16331 8.87963 3.16473 9.29963L3.1683 11.7167L3.17142 19.5346L3.17579 28.8257L3.17472 31.3588L3.17517 32.5805C3.18413 32.7908 3.34551 33.0073 3.49829 33.142C3.61041 33.2409 3.75379 33.2953 3.90233 33.3057C4.24864 33.3302 4.60685 33.3129 4.95422 33.3122L6.8533 33.3107L12.926 33.3196L20.2753 33.3129L22.7054 33.3061C23.1205 33.3048 23.5441 33.3218 23.9581 33.2971C24.159 33.285 24.3382 33.2061 24.4694 33.051C24.5661 32.9367 24.6296 32.7901 24.652 32.6421C24.677 32.4769 24.6685 32.3046 24.6688 32.138L24.6694 31.3254L24.6693 28.899C24.7943 28.8972 24.967 28.876 25.0845 28.9116L25.7881 30.5869C25.8647 30.75 25.9394 30.9494 26.0545 31.0884C26.1943 31.2572 26.3631 31.3506 26.5639 31.4306L26.6783 31.4759Z" fill="#FFCC00"/>
<path d="M23.5702 10.8048C23.8932 10.8013 24.2149 10.9078 24.4458 11.1414C24.791 11.4908 24.7511 11.9503 24.7547 12.4L24.76 13.2649C24.9927 13.3237 25.2208 13.4257 25.4388 13.5241C25.4776 13.5416 25.6916 13.6536 25.7083 13.6492C25.7222 13.6456 25.8002 13.554 25.8181 13.5358L26.2672 13.0867C26.5611 12.791 26.7873 12.542 27.2369 12.5315C27.5237 12.5248 27.7418 12.6135 27.9524 12.8075L28.6961 13.5383C28.8465 13.6896 29.0297 13.8446 29.135 14.0314C29.2118 14.1675 29.2542 14.3413 29.2587 14.4975C29.2734 15.0101 28.9318 15.3107 28.6056 15.6464L28.1782 16.1104L28.5667 17.1723L29.7628 17.1724C30.0324 17.2056 30.3414 17.3905 30.5063 17.604C30.6226 17.7545 30.7041 17.9737 30.7362 18.1597C30.7771 18.3961 30.7534 18.6685 30.7544 18.9087C30.7555 19.1827 30.7803 19.4821 30.7424 19.7531L30.737 19.7885C30.7173 19.9242 30.674 20.0479 30.6075 20.1678C30.4524 20.4473 30.1738 20.6903 29.8621 20.7754L29.8199 20.7863C29.4275 20.891 28.9568 20.7997 28.5482 20.8365C28.5117 20.9721 28.4669 21.1072 28.4143 21.2374C28.3884 21.3016 28.123 21.8336 28.1257 21.8743C28.1258 21.8754 28.9617 22.6879 29.0622 22.8332C29.1296 22.9309 29.1718 23.0339 29.1969 23.1496C29.2579 23.4304 29.2163 23.7405 29.0586 23.9839L29.0225 24.0391C29.0029 24.0789 29.0078 24.0834 29.0239 24.1253L30.5595 27.639L30.878 28.3735C30.9379 28.5136 31.0096 28.6594 31.0457 28.8078C31.1136 29.0873 31.0576 29.3988 30.9049 29.6411C30.8311 29.7582 30.72 29.873 30.6035 29.9476C30.2637 30.1652 29.8538 30.3044 29.4871 30.4733L28.8535 30.7733C28.7026 30.8448 28.5496 30.9241 28.3834 30.9524C28.0963 31.0014 27.7694 30.9082 27.5403 30.7332C27.4111 30.6345 27.3009 30.4942 27.2185 30.3544C27.146 30.2311 27.0967 30.0932 27.0377 29.9632L26.6421 29.0716L25.4973 26.522L24.8841 25.1818L24.7483 24.8695C24.7427 24.8565 24.7205 24.7904 24.7106 24.7816C24.7029 24.7746 24.6915 24.7732 24.6819 24.7691C24.6643 24.7829 24.6068 24.8184 24.598 24.8351C24.574 24.8804 24.587 25.0083 24.5868 25.0601L24.5849 25.7055C24.5836 25.9862 24.5961 26.1967 24.458 26.4507C24.3373 26.6729 24.1767 26.8386 23.9282 26.9076L23.8906 26.9176C23.8155 26.9384 23.749 26.9536 23.6707 26.9547L22.5673 26.9562C22.3422 26.9554 22.0991 26.9737 21.8788 26.9266C21.711 26.8907 21.5368 26.8001 21.4147 26.6801C21.0862 26.3571 21.1196 25.9992 21.1172 25.5771L21.1142 24.7714C20.7806 24.6875 20.4988 24.5553 20.1961 24.3954C20.189 24.3917 20.1827 24.383 20.1748 24.3842C20.1412 24.3893 19.368 25.1746 19.233 25.2681C19.0964 25.3628 18.9206 25.4365 18.756 25.4617C18.4671 25.5059 18.1584 25.4277 17.9273 25.2498C17.7226 25.0921 17.5358 24.871 17.3526 24.6869C17.1438 24.477 16.8864 24.2674 16.7226 24.02C16.6361 23.8892 16.5815 23.7357 16.5637 23.58C16.507 23.0842 16.8395 22.7536 17.1447 22.42L17.7204 21.772C17.5306 21.449 17.3853 21.1214 17.2764 20.7629C16.8753 20.7519 16.445 20.8092 16.0487 20.7521C15.7491 20.709 15.4856 20.5228 15.3125 20.2789C15.2316 20.1647 15.1649 20.017 15.1415 19.8778C15.1042 19.6562 15.1286 19.3916 15.1282 19.1643C15.1276 18.8328 15.0944 18.4541 15.1463 18.1292L15.1524 18.0944C15.1848 17.898 15.2952 17.6971 15.4348 17.5545C15.9021 17.0769 16.6461 17.1898 17.2544 17.1893C17.2742 16.902 17.4456 16.528 17.5854 16.2761C17.6023 16.2456 17.6606 16.1605 17.6567 16.1508C17.6392 16.1082 17.5345 16.0197 17.4993 15.9824C17.1304 15.5914 16.5266 15.1806 16.5112 14.5923C16.5038 14.3104 16.5608 14.0209 16.7632 13.8117L17.4565 13.1175C17.6071 12.965 17.7642 12.7695 17.9464 12.6573C18.1104 12.5564 18.273 12.5097 18.4647 12.5073C18.9652 12.5009 19.2338 12.7792 19.564 13.1091L20.1212 13.6614C20.3614 13.5508 20.6018 13.4157 20.8518 13.3307C20.9067 13.3121 21.1684 13.2523 21.1925 13.2238C21.1994 13.2157 21.1945 13.1037 21.1946 13.0815L21.2003 12.3294C21.2054 11.8886 21.211 11.4999 21.5363 11.1661C21.9076 10.7849 22.3112 10.8122 22.8048 10.8117L23.5702 10.8048Z" fill="#192D6C"/>
<path d="M25.5624 24.3613C25.6522 24.4038 25.7321 24.5055 25.8023 24.5754C26.1419 24.9129 26.5568 25.4339 27.0678 25.4621C27.4239 25.4817 27.7286 25.3828 27.9941 25.1419L28.3496 24.7867C28.4412 25.0552 28.5823 25.3073 28.694 25.5677L29.6957 27.8562L30.076 28.7021C30.1344 28.8399 30.2101 28.9624 30.1986 29.1168C30.1492 29.1964 30.1133 29.2065 30.032 29.2497L28.8789 29.773C28.6904 29.8594 28.4774 29.9859 28.2787 30.0379C28.2157 30.0544 28.1687 30.0551 28.1067 30.0366C28.041 29.9852 28.0039 29.933 27.9656 29.8591C27.7378 29.42 27.5553 28.9433 27.3512 28.4915L25.5 24.4246L25.5624 24.3613Z" fill="#FFCC00"/>
<path d="M22.218 11.6904L23.7008 11.6836C23.7783 11.6896 23.833 11.7368 23.8618 11.809C23.9053 11.9181 23.8849 12.0953 23.8852 12.2136L23.8851 13.2349C23.8857 13.3657 23.8668 13.545 23.8972 13.6712C23.9159 13.7487 23.9496 13.8242 24.0042 13.8832C24.119 14.0074 24.3326 14.051 24.4889 14.1029C24.66 14.1597 24.832 14.2227 24.9963 14.2972C25.2021 14.3906 25.3951 14.5334 25.6032 14.6149C25.6589 14.6367 25.7278 14.6495 25.7876 14.6501C25.8587 14.6508 25.9386 14.6262 25.9988 14.5881C26.112 14.5163 26.2084 14.386 26.304 14.2907L27.0632 13.527C27.1317 13.4599 27.1877 13.4199 27.2864 13.4237C27.3 13.4243 27.3511 13.4281 27.3582 13.4311C27.4087 13.4522 27.5437 13.6269 27.5889 13.6738L28.4271 14.525L28.3819 14.5934C28.2376 14.8108 28.0191 14.9877 27.8414 15.1788L27.1133 16.0152C27.4622 16.5896 27.7546 17.2751 27.8868 17.9333C27.8941 17.9696 27.8765 18.0224 27.9077 18.0424C27.992 18.0966 29.4181 17.9881 29.6561 18.0477C29.6812 18.054 29.7465 18.1142 29.7656 18.1328C29.8124 18.1784 29.8654 18.2387 29.8667 18.3062L29.8721 19.2244C29.8724 19.3612 29.8921 19.5424 29.8652 19.6742C29.8546 19.7263 29.7815 19.8133 29.7432 19.8499C29.6975 19.8936 29.6387 19.9218 29.5768 19.9343C29.4036 19.9693 29.1943 19.9502 29.0173 19.9511L27.8911 19.9553C27.7608 20.6601 27.4216 21.3507 27.0081 21.9292C27.2586 22.3142 27.6358 22.6582 27.9705 22.9739C28.083 23.0801 28.214 23.1831 28.3167 23.2981C28.3483 23.3334 28.3737 23.3626 28.3691 23.4116C28.3643 23.4624 28.3464 23.5097 28.3167 23.5512C28.1791 23.7431 27.9385 23.9179 27.7673 24.0833C27.5726 24.2714 27.3944 24.4748 27.1905 24.6534C26.9379 24.4157 26.0224 23.5061 25.7421 23.4613C25.6343 23.444 25.5265 23.4517 25.4228 23.4847C25.1602 23.5682 24.9052 23.7316 24.6446 23.8343C24.5457 23.8733 24.4468 23.9143 24.3439 23.9419C24.2031 23.9798 24.0385 24 23.9182 24.0865C23.8227 24.1551 23.7645 24.2555 23.7412 24.3702C23.7176 24.4865 23.7347 24.6296 23.7349 24.7495L23.7365 25.5438C23.7368 25.7059 23.7473 25.8721 23.7222 26.0325C23.518 26.0855 23.2806 26.0621 23.0705 26.0623C22.7135 26.0627 22.3531 26.0733 21.9969 26.051L21.9943 24.685C21.9942 24.5908 22.0205 24.3877 21.994 24.3106C21.9803 24.2711 21.9397 24.2174 21.9164 24.1813C21.8747 24.1171 21.821 24.0531 21.7507 24.019C21.6459 23.968 21.5017 23.9507 21.3869 23.9199C21.2367 23.8795 21.0911 23.823 20.9463 23.7668C20.7127 23.6762 20.4904 23.494 20.2475 23.4456C20.1963 23.4354 20.1081 23.41 20.058 23.4142C19.901 23.4276 19.7286 23.5895 19.6168 23.6884L18.9639 24.3057C18.843 24.4216 18.7259 24.5472 18.5864 24.6407C18.1914 24.2698 17.7449 23.8727 17.411 23.4461L18.1877 22.587C18.3274 22.4361 18.5349 22.2687 18.626 22.0853C18.6812 21.9743 18.6793 21.7845 18.6479 21.6668C18.6178 21.5535 18.5179 21.4355 18.4599 21.3332C18.3842 21.1995 18.3174 21.0566 18.2535 20.9169C18.1489 20.6881 18.0926 20.4566 18.0068 20.2237C17.9702 20.1243 17.9092 20.0213 17.8146 19.9675C17.7068 19.9063 17.5606 19.9091 17.4393 19.9022C17.1029 19.8831 16.7669 19.8981 16.4303 19.9023C16.3131 19.9038 16.1554 19.9255 16.0485 19.8782C15.9901 19.7129 16.0228 19.463 16.0227 19.2871L16.0276 18.0658C16.4614 18.0029 16.9275 18.058 17.3675 18.0377C17.5588 18.0289 17.7506 18.0369 17.8859 17.8758C17.9861 17.7565 17.9985 17.6044 18.0399 17.4601L18.2016 16.971C18.2653 16.8064 18.3433 16.6434 18.4278 16.4884C18.4863 16.381 18.5721 16.2685 18.5866 16.1445C18.6008 16.023 18.5841 15.9009 18.5274 15.7916C18.4634 15.6681 18.3271 15.5573 18.2299 15.4595L17.6258 14.8582C17.5258 14.7587 17.373 14.6495 17.3585 14.5061C17.4119 14.3578 17.6461 14.1806 17.7623 14.0671C18.0108 13.8242 18.2516 13.5516 18.5255 13.3381L18.5444 13.3528L18.5757 13.3778C18.8936 13.6288 19.1808 13.9619 19.4692 14.2493C19.5733 14.3531 19.6848 14.4897 19.8101 14.5676C19.8782 14.6101 19.967 14.6346 20.0469 14.6396C20.2582 14.6531 20.4577 14.4934 20.6351 14.3962C20.828 14.2906 21.0396 14.2096 21.2475 14.139C21.4369 14.0747 21.7893 14.025 21.9318 13.8941C21.9955 13.8356 22.0508 13.7447 22.0682 13.6595C22.0936 13.5349 22.0777 13.3798 22.0782 13.2523L22.0797 12.3257C22.0798 12.1661 22.0652 11.9893 22.0837 11.8312C22.0912 11.7665 22.1691 11.7256 22.218 11.6904Z" fill="#FFCC00"/>
<path d="M22.5712 15.9067C23.3091 15.8018 24.0916 16.0509 24.6844 16.4882C25.3467 16.977 25.7318 17.7257 25.8484 18.527C25.9563 19.2686 25.756 20.0853 25.3068 20.6853C24.8084 21.3511 24.084 21.7482 23.2687 21.8686L23.2448 21.8727C22.5371 21.9847 21.7115 21.755 21.1367 21.3339C20.5165 20.8796 20.0667 20.1284 19.9623 19.3626C19.8512 18.5484 20.0418 17.7434 20.5411 17.0857C21.0571 16.4059 21.7297 16.0204 22.5712 15.9067Z" fill="#192D6C"/>
<path d="M22.7242 16.7968L22.7367 16.7943C23.2308 16.753 23.8109 16.9604 24.202 17.2607C24.6303 17.5897 24.9192 18.0878 24.983 18.6272C25.0518 19.2082 24.9015 19.7679 24.5369 20.2245C24.1891 20.6601 23.687 20.9168 23.1364 20.9788C22.5865 21.0314 22.031 20.9024 21.5879 20.5603C21.1556 20.2267 20.8567 19.7075 20.794 19.165C20.7277 18.5926 20.8873 18.0267 21.2454 17.5769C21.6098 17.1192 22.1511 16.8618 22.7242 16.7968Z" fill="white"/>
</svg>
